<?xml version="1.0" standalone="no"?>
<!DOCTYPE svg PUBLIC "-//W3C//DTD SVG 20010904//EN"
 "http://www.w3.org/TR/2001/REC-SVG-20010904/DTD/svg10.dtd">
<svg version="1.0" xmlns="http://www.w3.org/2000/svg"
 width="921.000000pt" height="613.000000pt" viewBox="0 0 921.000000 613.000000"
 preserveAspectRatio="xMidYMid meet">

<g transform="translate(0.000000,613.000000) scale(0.100000,-0.100000)"
fill="#000000" stroke="none">
<path d="M457 5570 c-98 -30 -162 -145 -137 -249 31 -131 180 -202 296 -143
128 65 162 218 73 326 -54 64 -148 91 -232 66z m83 -171 c0 -26 3 -29 30 -29
17 0 30 -4 30 -10 0 -5 -13 -10 -30 -10 -27 0 -30 -3 -30 -29 0 -17 -4 -33
-10 -36 -6 -4 -10 8 -10 29 0 34 -2 36 -35 36 -44 0 -46 18 -2 22 28 3 32 7
35 36 4 39 22 33 22 -9z"/>
<path d="M1820 5235 c0 -138 1 -145 20 -145 19 0 20 7 20 96 0 59 4 93 10 89
5 -3 37 -46 71 -95 41 -60 68 -90 80 -90 18 0 19 9 19 145 l0 145 -25 0 c-24
0 -24 -2 -27 -92 l-3 -93 -64 93 c-93 134 -101 130 -101 -53z"/>
<path d="M2388 5352 c-11 -2 -18 -13 -18 -28 0 -17 -5 -24 -20 -24 -13 0 -20
-7 -20 -19 0 -10 9 -21 20 -24 18 -4 20 -14 20 -74 0 -78 9 -93 57 -93 26 0
33 4 33 19 0 13 -8 21 -22 23 -21 3 -23 8 -23 63 0 55 2 60 23 63 32 5 30 42
-2 42 -20 0 -25 6 -28 28 -2 20 -8 27 -20 24z"/>
<path d="M2119 5271 c-23 -24 -29 -38 -29 -74 0 -55 27 -92 79 -108 32 -9 44
-8 75 6 71 34 85 119 30 177 -23 23 -36 28 -77 28 -40 0 -53 -5 -78 -29z m119
-27 c46 -32 18 -114 -40 -114 -59 0 -88 65 -48 108 24 26 57 28 88 6z"/>
<path d="M2519 5271 c-41 -41 -41 -107 0 -153 25 -28 35 -32 79 -32 36 0 57 6
72 19 19 17 20 20 5 31 -12 9 -22 9 -45 -3 -25 -12 -34 -12 -57 -1 -15 7 -29
21 -31 31 -3 15 6 17 77 17 l81 0 0 31 c0 20 -10 40 -29 60 -24 24 -38 29 -76
29 -38 0 -52 -5 -76 -29z m129 -38 l14 -23 -61 0 c-43 0 -61 4 -61 13 0 42 81
49 108 10z"/>
<path d="M2747 5282 c-39 -42 -13 -90 56 -106 32 -8 47 -34 26 -47 -16 -10
-51 -2 -60 14 -9 14 -39 1 -39 -16 0 -41 101 -58 139 -23 42 38 22 87 -44 108
-46 15 -62 48 -23 48 13 0 29 -5 36 -12 8 -8 15 -8 27 2 14 12 14 15 -1 31
-23 26 -95 26 -117 1z"/>
<path d="M2060 3950 c0 -5 9 -10 20 -10 18 0 20 -7 20 -55 0 -30 5 -55 10 -55
6 0 10 25 10 55 0 42 3 55 15 55 8 0 15 5 15 10 0 6 -20 10 -45 10 -25 0 -45
-4 -45 -10z"/>
<path d="M2167 3944 c-7 -20 -1 -103 8 -113 3 -2 5 9 5 25 0 17 5 35 11 41 20
20 39 3 39 -33 0 -19 5 -34 10 -34 11 0 14 49 4 74 -4 9 -18 16 -34 16 -22 0
-29 5 -32 23 -4 22 -4 22 -11 1z"/>
<path d="M2270 3944 c0 -8 5 -12 10 -9 6 4 8 11 5 16 -9 14 -15 11 -15 -7z"/>
<path d="M2430 3951 c0 -6 5 -13 10 -16 6 -3 10 1 10 9 0 9 -4 16 -10 16 -5 0
-10 -4 -10 -9z"/>
<path d="M2600 3895 l0 -65 38 0 c45 0 72 24 72 63 0 38 -33 67 -75 67 l-35 0
0 -65z m71 35 c21 -12 25 -50 7 -68 -7 -7 -22 -12 -35 -12 -21 0 -23 5 -23 45
0 48 11 56 51 35z"/>
<path d="M2938 3954 c-12 -11 -10 -124 2 -124 6 0 10 10 11 23 l0 22 16 -22
c8 -13 23 -23 31 -23 13 0 12 4 -6 22 l-22 22 22 23 c17 18 18 23 6 23 -9 0
-22 -7 -29 -17 -13 -15 -15 -12 -19 21 -3 21 -8 34 -12 30z"/>
<path d="M3640 3875 c0 -50 4 -85 10 -85 6 0 10 35 10 85 0 50 -4 85 -10 85
-6 0 -10 -35 -10 -85z"/>
<path d="M4950 3940 c0 -5 9 -10 20 -10 18 0 20 -7 20 -56 0 -34 4 -53 10 -49
6 3 10 28 10 56 0 37 4 49 15 49 8 0 15 5 15 10 0 6 -20 10 -45 10 -25 0 -45
-4 -45 -10z"/>
<path d="M5063 3885 c0 -38 2 -56 4 -38 8 62 53 69 53 7 0 -19 5 -34 10 -34
11 0 14 49 4 74 -4 9 -18 16 -34 16 -22 0 -30 6 -33 23 -2 12 -4 -9 -4 -48z"/>
<path d="M5311 3890 l-1 -66 31 -2 c37 -3 59 13 59 42 0 30 -18 46 -51 46 -21
0 -29 6 -32 23 -2 12 -5 -7 -6 -43z m67 -23 c3 -23 0 -27 -21 -27 -29 0 -43
26 -26 47 18 21 44 11 47 -20z"/>
<path d="M5640 3940 c0 -5 5 -10 11 -10 5 0 7 5 4 10 -3 6 -8 10 -11 10 -2 0
-4 -4 -4 -10z"/>
<path d="M5880 3940 c0 -5 5 -10 10 -10 6 0 10 5 10 10 0 6 -4 10 -10 10 -5 0
-10 -4 -10 -10z"/>
<path d="M6293 3933 c-4 -10 -11 -21 -17 -25 -7 -5 -7 -8 2 -8 7 0 12 -15 12
-41 0 -24 4 -38 10 -34 6 3 10 22 10 41 0 20 5 34 13 34 8 0 7 4 -3 11 -11 8
-12 12 -2 16 17 7 15 23 -3 23 -9 0 -19 -8 -22 -17z"/>
<path d="M7828 3943 c-22 -5 -24 -23 -3 -23 11 0 15 -12 15 -50 0 -27 5 -50
10 -50 6 0 10 28 10 65 0 36 -3 64 -7 64 -5 -1 -16 -3 -25 -6z"/>
<path d="M7880 3940 c0 -5 11 -10 25 -10 23 0 25 -2 14 -21 -9 -18 -8 -24 5
-31 9 -5 16 -16 16 -25 0 -12 -7 -14 -31 -9 -22 4 -29 2 -26 -7 2 -6 19 -12
38 -12 28 0 35 4 37 23 2 13 -2 30 -9 38 -9 11 -9 18 -1 26 24 24 13 38 -28
38 -22 0 -40 -4 -40 -10z"/>
<path d="M8020 3940 c0 -5 7 -10 15 -10 12 0 15 -13 15 -55 0 -30 5 -55 10
-55 6 0 10 25 10 55 0 48 2 55 20 55 11 0 20 5 20 10 0 6 -20 10 -45 10 -25 0
-45 -4 -45 -10z"/>
<path d="M8120 3885 c0 -37 4 -65 10 -65 6 0 10 15 10 34 0 20 6 36 14 39 19
8 26 -1 26 -34 0 -15 5 -31 11 -34 7 -5 9 8 7 37 -3 39 -6 43 -30 46 -20 2
-28 9 -28 23 0 10 -4 19 -10 19 -6 0 -10 -28 -10 -65z"/>
<path d="M8220 3940 c0 -5 5 -10 10 -10 6 0 10 5 10 10 0 6 -4 10 -10 10 -5 0
-10 -4 -10 -10z"/>
<path d="M8600 3940 c0 -5 9 -24 20 -42 11 -18 20 -43 20 -55 0 -13 5 -23 10
-23 6 0 10 11 10 25 0 14 9 44 20 65 24 46 10 55 -16 10 l-18 -29 -18 29 c-18
31 -28 38 -28 20z"/>
<path d="M3120 3922 c-10 -12 -11 -17 -2 -20 7 -2 12 -19 12 -38 0 -27 4 -34
20 -34 11 0 20 5 20 10 0 6 -7 10 -15 10 -10 0 -14 9 -13 25 1 14 8 25 15 25
18 0 16 13 -5 26 -13 9 -21 8 -32 -4z"/>
<path d="M3440 3922 c-10 -11 -11 -17 -2 -20 7 -2 12 -19 12 -38 0 -27 4 -34
20 -34 11 0 20 5 20 10 0 6 -7 10 -15 10 -9 0 -15 9 -15 25 0 16 6 25 15 25 8
0 15 5 15 10 0 6 -6 10 -14 10 -8 0 -16 4 -18 9 -1 5 -10 2 -18 -7z"/>
<path d="M2270 3875 c0 -25 5 -45 10 -45 6 0 10 20 10 45 0 25 -4 45 -10 45
-5 0 -10 -20 -10 -45z"/>
<path d="M2304 3908 c-4 -6 5 -21 22 -35 25 -21 26 -24 8 -21 -11 2 -22 -1
-22 -7 -1 -5 10 -10 25 -10 37 0 43 31 9 46 -30 14 -26 30 6 21 14 -3 19 -2
14 6 -9 15 -53 15 -62 0z"/>
<path d="M2430 3875 c0 -25 5 -45 10 -45 6 0 10 20 10 45 0 25 -4 45 -10 45
-5 0 -10 -20 -10 -45z"/>
<path d="M2477 3913 c-15 -14 -6 -34 21 -45 l27 -11 -30 -7 c-24 -5 -27 -8
-13 -14 25 -11 52 -3 56 17 2 11 -6 20 -23 27 -31 12 -25 31 7 22 14 -3 19 -2
14 6 -8 13 -48 16 -59 5z"/>
<path d="M2729 3899 c-17 -33 3 -69 39 -69 33 0 52 16 52 45 0 29 -19 45 -52
45 -18 0 -31 -7 -39 -21z m66 -24 c0 -22 -31 -33 -47 -17 -17 17 -1 44 24 40
15 -2 23 -10 23 -23z"/>
<path d="M2842 3908 c-16 -16 -15 -53 2 -67 18 -15 68 -11 73 6 3 7 -8 11 -29
10 -27 -2 -33 2 -33 18 0 16 6 20 33 18 21 -1 32 3 29 10 -5 17 -60 20 -75 5z"/>
<path d="M3022 3908 c-7 -7 -12 -21 -12 -33 0 -12 5 -26 12 -33 15 -15 64 -16
73 -2 4 6 -7 10 -24 10 -17 0 -31 5 -31 10 0 6 16 10 35 10 33 0 34 1 23 25
-12 27 -54 35 -76 13z m58 -19 c0 -5 -12 -9 -26 -9 -22 0 -24 2 -14 14 12 15
40 11 40 -5z"/>
<path d="M3230 3876 c0 -25 5 -46 10 -46 6 0 10 15 10 34 0 20 6 36 14 39 20
8 26 -2 26 -40 0 -18 5 -33 11 -33 6 0 9 17 7 43 -3 41 -4 42 -40 45 l-38 3 0
-45z"/>
<path d="M3342 3908 c-7 -7 -12 -21 -12 -33 0 -12 5 -26 12 -33 7 -7 21 -12
33 -12 12 0 26 5 33 12 7 7 12 21 12 33 0 12 -5 26 -12 33 -7 7 -21 12 -33 12
-12 0 -26 -5 -33 -12z m58 -34 c0 -19 -5 -24 -24 -24 -29 0 -40 24 -20 44 20
20 44 9 44 -20z"/>
<path d="M3503 3900 c-20 -32 0 -70 36 -70 16 0 33 5 36 10 4 6 -7 10 -24 10
-17 0 -31 5 -31 10 0 6 16 10 35 10 22 0 35 5 35 13 0 38 -66 51 -87 17z m48
-18 c-28 -4 -40 6 -21 18 9 6 20 4 29 -3 12 -10 11 -13 -8 -15z"/>
<path d="M5160 3890 c-23 -43 21 -85 67 -64 15 6 12 9 -12 12 -47 6 -55 22
-11 22 33 0 37 3 34 23 -4 32 -62 37 -78 7z m58 -8 c2 -7 -7 -12 -22 -12 -27
0 -35 15 -13 23 17 7 30 3 35 -11z"/>
<path d="M5421 3888 c-17 -44 42 -90 73 -57 8 9 6 11 -11 6 -12 -2 -30 1 -40
9 -16 12 -14 13 25 14 46 0 47 2 32 31 -16 28 -68 26 -79 -3z m60 -3 c0 -5 -9
-11 -21 -13 -20 -3 -27 8 -13 22 10 9 34 3 34 -9z"/>
<path d="M5532 3898 c-17 -17 -15 -53 3 -68 8 -7 26 -10 40 -7 17 3 24 0 22
-7 -2 -6 -18 -10 -36 -10 -34 2 -42 -11 -11 -21 44 -14 75 28 68 91 -3 25 -8
29 -38 32 -19 2 -41 -3 -48 -10z m58 -13 c17 -20 5 -45 -20 -45 -23 0 -35 22
-26 45 7 19 30 19 46 0z"/>
<path d="M5643 3865 c0 -27 2 -38 4 -22 2 15 2 37 0 50 -2 12 -4 0 -4 -28z"/>
<path d="M5682 3863 c1 -36 2 -40 5 -16 8 62 53 69 53 7 0 -19 5 -34 10 -34
11 0 14 49 4 74 -4 10 -18 16 -40 16 l-34 0 2 -47z"/>
<path d="M5781 3863 l1 -48 12 40 c15 52 40 53 44 3 4 -45 22 -51 22 -9 0 49
-9 61 -46 61 -34 0 -34 0 -33 -47z"/>
<path d="M5880 3864 c0 -27 4 -43 10 -39 6 3 10 24 10 46 0 21 -4 39 -10 39
-5 0 -10 -21 -10 -46z"/>
<path d="M5920 3864 c0 -52 16 -51 22 1 5 45 32 39 36 -7 2 -21 8 -38 13 -38
6 0 9 19 7 43 -3 41 -4 42 -40 45 l-38 3 0 -47z"/>
<path d="M6021 3888 c-12 -32 9 -63 43 -63 14 1 25 -4 23 -10 -2 -5 -19 -9
-38 -8 -32 1 -33 0 -15 -13 24 -17 31 -17 57 -4 15 9 19 22 19 65 l0 55 -40 0
c-33 0 -42 -4 -49 -22z m64 -18 c0 -18 -6 -26 -23 -28 -27 -4 -40 22 -22 44
19 22 45 13 45 -16z"/>
<path d="M6180 3890 c-22 -41 13 -80 59 -65 48 15 31 85 -19 85 -19 0 -33 -7
-40 -20z m58 1 c21 -13 10 -46 -16 -49 -27 -4 -40 22 -22 43 14 17 20 18 38 6z"/>
<path d="M8220 3865 c0 -25 5 -45 10 -45 6 0 10 20 10 45 0 25 -4 45 -10 45
-5 0 -10 -20 -10 -45z"/>
<path d="M8260 3866 c0 -25 5 -46 10 -46 6 0 10 15 10 34 0 61 43 54 53 -9 3
-19 4 -13 3 15 -1 45 -1 45 -38 48 l-38 3 0 -45z"/>
<path d="M8372 3898 c-29 -29 -7 -78 35 -78 13 0 23 -5 23 -11 0 -7 -11 -9
-31 -5 -22 4 -29 2 -27 -7 7 -19 48 -20 69 -1 14 12 19 30 19 66 l0 48 -38 0
c-21 0 -43 -5 -50 -12z m61 -22 c8 -20 -8 -38 -29 -34 -22 4 -31 37 -13 48 15
10 36 3 42 -14z"/>
<path d="M8477 3903 c-15 -14 -6 -34 19 -43 14 -6 22 -15 19 -20 -5 -8 -11 -8
-20 0 -9 8 -15 8 -20 0 -3 -5 1 -13 9 -16 46 -18 77 27 32 47 -30 14 -26 30 6
21 14 -3 19 -2 14 6 -8 13 -48 16 -59 5z"/>
<path d="M8700 3896 c-15 -19 -9 -56 11 -69 9 -5 28 -7 42 -3 23 5 27 12 27
40 0 34 -13 46 -50 46 -9 0 -23 -7 -30 -14z m64 -21 c7 -19 -20 -46 -39 -39
-8 4 -15 17 -15 30 0 19 5 24 24 24 13 0 26 -7 30 -15z"/>
<path d="M8802 3868 c3 -42 4 -43 41 -46 l37 -3 0 45 c0 25 -4 46 -10 46 -5 0
-10 -15 -10 -34 0 -20 -6 -36 -14 -39 -20 -8 -26 2 -26 40 0 18 -5 33 -11 33
-6 0 -9 -17 -7 -42z"/>
<path d="M3600 3840 c0 -5 5 -10 10 -10 6 0 10 5 10 10 0 6 -4 10 -10 10 -5 0
-10 -4 -10 -10z"/>
<path d="M8237 3733 c-11 -10 -8 -133 3 -133 6 0 10 30 10 70 0 70 -1 76 -13
63z"/>
<path d="M5500 3664 c0 -41 4 -63 10 -59 6 3 10 33 10 66 0 33 -4 59 -10 59
-6 0 -10 -29 -10 -66z"/>
<path d="M5920 3709 c0 -16 -4 -19 -21 -14 -13 4 -27 0 -40 -11 -39 -35 -12
-86 44 -80 32 3 32 4 35 65 2 38 -1 61 -8 61 -5 0 -10 -9 -10 -21z m-11 -43
c15 -18 3 -46 -20 -46 -22 0 -34 22 -25 45 7 19 30 19 45 1z"/>
<path d="M6140 3720 c0 -5 5 -10 10 -10 6 0 10 5 10 10 0 6 -4 10 -10 10 -5 0
-10 -4 -10 -10z"/>
<path d="M7832 3718 c-20 -20 -14 -38 23 -59 35 -21 38 -39 6 -39 -9 0 -22 5
-29 12 -9 9 -12 8 -12 -5 0 -20 47 -34 69 -20 29 18 24 42 -13 64 -45 26 -47
44 -5 35 22 -4 29 -2 27 7 -6 17 -50 21 -66 5z"/>
<path d="M7920 3665 c0 -37 4 -65 10 -65 6 0 10 13 10 29 0 31 22 57 40 46 5
-3 10 -22 10 -41 0 -19 5 -34 10 -34 16 0 11 67 -6 85 -9 9 -24 13 -35 10 -14
-5 -19 -1 -19 14 0 12 -4 21 -10 21 -6 0 -10 -28 -10 -65z"/>
<path d="M8350 3709 c0 -17 -4 -20 -24 -15 -30 7 -56 -15 -56 -48 0 -32 20
-46 63 -44 l37 1 0 64 c0 35 -4 63 -10 63 -5 0 -10 -9 -10 -21z m-11 -43 c15
-18 3 -46 -20 -46 -22 0 -34 22 -25 45 7 19 30 19 45 1z"/>
<path d="M8447 3712 c-39 -42 -9 -112 46 -112 29 0 71 34 64 53 -5 15 -67 22
-67 8 0 -6 9 -11 21 -11 27 0 19 -24 -10 -28 -42 -7 -69 46 -39 76 15 15 54
16 63 2 4 -6 11 -7 17 -4 16 10 -21 34 -52 34 -15 0 -34 -8 -43 -18z"/>
<path d="M8570 3720 c0 -5 5 -10 10 -10 6 0 10 5 10 10 0 6 -4 10 -10 10 -5 0
-10 -4 -10 -10z"/>
<path d="M8850 3677 c0 -58 12 -77 46 -77 37 0 54 26 54 81 0 66 -18 63 -22
-3 -3 -49 -5 -53 -28 -53 -23 0 -25 4 -28 53 -4 68 -22 68 -22 -1z"/>
<path d="M9130 3665 c0 -37 4 -65 10 -65 6 0 10 28 10 65 0 37 -4 65 -10 65
-6 0 -10 -28 -10 -65z"/>
<path d="M9183 3710 c-3 -11 -10 -20 -16 -20 -7 0 -7 -4 1 -12 7 -7 12 -28 12
-47 0 -55 17 -24 23 42 5 55 -9 80 -20 37z"/>
<path d="M4973 3693 c-14 -5 -18 -43 -5 -43 5 0 17 -7 28 -16 18 -15 18 -15
-9 -11 -18 3 -26 0 -24 -7 2 -6 15 -11 28 -11 32 0 40 40 10 50 -12 3 -21 11
-21 16 0 6 9 7 20 4 24 -7 27 10 4 19 -9 3 -16 6 -17 5 -1 0 -8 -3 -14 -6z"/>
<path d="M5050 3680 c-24 -24 -24 -29 -4 -58 18 -25 46 -29 64 -7 11 13 8 14
-18 9 -34 -7 -47 6 -37 37 6 17 13 20 39 15 29 -5 30 -5 12 9 -26 20 -32 19
-56 -5z"/>
<path d="M5158 3692 c-14 -3 -18 -13 -17 -50 2 -34 3 -39 6 -17 3 17 12 38 20
48 18 20 16 25 -9 19z"/>
<path d="M5208 3689 c-25 -14 -23 -65 2 -79 12 -6 30 -8 40 -5 31 10 23 22
-10 17 -18 -3 -30 0 -30 7 0 6 16 11 35 11 39 0 46 17 17 43 -21 19 -30 20
-54 6z m47 -19 c4 -6 -5 -10 -20 -10 -15 0 -24 4 -20 10 3 6 12 10 20 10 8 0
17 -4 20 -10z"/>
<path d="M5305 3680 c-24 -26 -13 -68 20 -76 24 -6 45 1 45 15 0 5 -11 6 -24
4 -13 -3 -27 0 -30 6 -5 7 5 11 28 11 29 0 36 4 36 20 0 18 -26 40 -48 40 -5
0 -17 -9 -27 -20z m50 -10 c4 -6 -5 -10 -20 -10 -15 0 -24 4 -20 10 3 6 12 10
20 10 8 0 17 -4 20 -10z"/>
<path d="M5418 3693 c-14 -3 -18 -15 -18 -51 0 -50 16 -48 22 3 2 19 9 31 21
33 13 3 17 -4 17 -32 0 -19 5 -38 10 -41 14 -9 13 68 -2 83 -12 12 -20 13 -50
5z"/>
<path d="M5558 3689 c-22 -12 -24 -62 -3 -79 8 -7 25 -10 40 -6 35 9 32 27 -4
20 -16 -4 -32 -1 -35 5 -5 7 6 11 33 11 47 0 55 19 19 44 -26 19 -27 19 -50 5z
m47 -19 c4 -6 -5 -10 -19 -10 -14 0 -26 5 -26 10 0 6 9 10 19 10 11 0 23 -4
26 -10z"/>
<path d="M5653 3693 c-14 -5 -18 -43 -5 -43 5 0 17 -7 28 -16 18 -15 18 -15
-9 -11 -30 5 -33 -15 -3 -21 41 -8 55 41 15 53 -25 8 -25 29 1 22 24 -6 27 8
4 17 -9 3 -16 6 -17 5 -1 0 -8 -3 -14 -6z"/>
<path d="M5733 3693 c-20 -8 -15 -41 7 -48 26 -8 26 -29 -1 -22 -13 3 -19 1
-16 -6 2 -7 15 -12 28 -12 17 0 25 6 27 23 2 14 -2 22 -11 22 -8 0 -21 7 -28
17 -13 15 -11 16 15 9 26 -6 28 -5 17 8 -14 17 -18 18 -38 9z"/>
<path d="M5970 3680 c-25 -25 -25 -42 0 -65 13 -12 27 -15 45 -11 35 9 32 27
-4 20 -16 -4 -32 -1 -35 5 -5 7 5 11 28 11 44 0 53 13 26 40 -25 25 -35 25
-60 0z m50 -10 c0 -5 -12 -10 -26 -10 -14 0 -23 4 -19 10 3 6 15 10 26 10 10
0 19 -4 19 -10z"/>
<path d="M6073 3693 c-20 -8 -15 -41 7 -48 26 -8 26 -29 -1 -22 -13 3 -19 1
-16 -6 2 -7 15 -12 28 -12 32 0 40 40 10 50 -12 3 -21 11 -21 16 0 6 9 7 20 4
24 -7 27 10 4 19 -9 3 -16 6 -17 5 -1 0 -8 -3 -14 -6z"/>
<path d="M6191 3681 c-25 -25 -26 -30 -5 -60 12 -16 23 -22 41 -18 15 3 22 0
20 -7 -2 -6 -19 -10 -36 -8 -20 1 -30 -2 -26 -8 9 -14 58 -13 73 2 18 18 16
108 -2 108 -8 0 -21 3 -29 6 -9 3 -25 -4 -36 -15z m54 -31 c0 -16 -6 -26 -19
-28 -25 -5 -39 12 -31 38 10 31 50 24 50 -10z"/>
<path d="M6313 3693 c-19 -4 -23 -11 -23 -43 0 -51 18 -61 22 -13 2 30 7 38
23 38 16 0 21 -9 26 -40 l6 -40 2 41 c1 35 -13 66 -28 63 -4 -1 -16 -4 -28 -6z"/>
<path d="M6396 3691 c-4 -5 -2 -12 3 -15 5 -4 12 -2 15 3 4 5 2 12 -3 15 -5 4
-12 2 -15 -3z"/>
<path d="M8042 3684 c-39 -27 -23 -84 23 -84 23 0 55 28 55 48 0 13 -36 52
-48 52 -4 0 -18 -7 -30 -16z m48 -19 c18 -21 5 -47 -22 -43 -26 3 -37 36 -16
49 18 12 24 11 38 -6z"/>
<path d="M8718 3689 c-22 -12 -24 -62 -4 -79 17 -13 58 -10 63 6 2 7 -8 9 -27
6 -18 -3 -30 0 -30 7 0 6 16 11 35 11 41 0 47 20 13 44 -26 19 -27 19 -50 5z
m47 -19 c4 -6 -5 -10 -20 -10 -15 0 -24 4 -20 10 3 6 12 10 20 10 8 0 17 -4
20 -10z"/>
<path d="M8993 3693 c-21 -4 -23 -10 -23 -69 0 -41 4 -63 10 -59 6 3 10 14 10
25 0 13 5 17 20 13 11 -3 27 0 35 7 22 18 19 67 -4 80 -11 5 -21 9 -23 9 -2
-1 -13 -4 -25 -6z m46 -31 c12 -23 -1 -45 -25 -40 -23 4 -31 37 -12 49 19 13
26 11 37 -9z"/>
<path d="M6140 3644 c0 -27 4 -43 10 -39 6 3 10 24 10 46 0 21 -4 39 -10 39
-5 0 -10 -21 -10 -46z"/>
<path d="M8130 3657 c0 -40 15 -57 52 -57 27 0 28 2 28 45 0 25 -4 45 -10 45
-5 0 -10 -16 -10 -35 0 -28 -4 -35 -20 -35 -16 0 -20 7 -20 35 0 19 -4 35 -10
35 -5 0 -10 -15 -10 -33z"/>
<path d="M8570 3645 c0 -25 5 -45 10 -45 6 0 10 20 10 45 0 25 -4 45 -10 45
-5 0 -10 -20 -10 -45z"/>
<path d="M8619 3648 c9 -23 22 -43 28 -45 8 -3 43 63 43 82 0 17 -20 0 -30
-26 l-13 -31 -13 31 c-7 17 -18 31 -23 31 -6 0 -2 -19 8 -42z"/>
<path d="M6396 3621 c-4 -5 -2 -12 3 -15 5 -4 12 -2 15 3 4 5 2 12 -3 15 -5 4
-12 2 -15 -3z"/>
<path d="M4960 3461 c0 -68 26 -94 71 -71 16 9 19 20 17 68 -2 56 -2 56 -5 10
-7 -87 -63 -95 -63 -8 0 27 -4 50 -10 50 -5 0 -10 -22 -10 -49z"/>
<path d="M5080 3450 c0 -33 4 -60 10 -60 6 0 10 27 10 60 0 33 -4 60 -10 60
-6 0 -10 -27 -10 -60z"/>
<path d="M5170 3499 c0 -5 5 -7 10 -4 6 3 10 8 10 11 0 2 -4 4 -10 4 -5 0 -10
-5 -10 -11z"/>
<path d="M5321 3454 c-1 -56 1 -62 22 -68 31 -8 34 -8 51 10 36 35 4 94 -44
79 -14 -4 -20 0 -23 17 -2 13 -5 -5 -6 -38z m67 -6 c14 -14 -2 -48 -22 -48
-20 0 -37 25 -30 44 7 19 35 21 52 4z"/>
<path d="M5770 3451 c0 -56 1 -59 27 -64 34 -6 51 0 64 25 16 29 -15 72 -47
65 -18 -3 -24 0 -24 14 0 11 -4 19 -10 19 -6 0 -10 -26 -10 -59z m75 -1 c11
-18 -6 -50 -26 -50 -22 0 -34 22 -25 45 6 17 42 20 51 5z"/>
<path d="M6210 3450 c0 -33 4 -60 10 -60 6 0 10 7 10 17 0 14 2 14 20 -2 11
-10 22 -16 25 -13 3 3 -1 11 -10 18 -20 16 -19 29 3 54 17 20 17 20 -10 3
l-28 -17 0 30 c0 16 -4 30 -10 30 -6 0 -10 -27 -10 -60z"/>
<path d="M7829 3476 c12 -18 21 -45 21 -59 0 -14 5 -29 10 -32 6 -3 10 5 10
19 0 14 9 40 20 58 22 36 25 48 12 48 -5 0 -15 -12 -22 -26 l-14 -25 -19 25
c-27 38 -42 32 -18 -8z"/>
<path d="M8160 3503 c0 -26 35 -123 43 -120 6 2 18 23 26 48 l15 44 14 -48 c7
-27 18 -47 25 -44 6 2 18 31 28 66 12 40 14 61 7 59 -7 -3 -17 -22 -23 -44
l-12 -39 -12 30 c-6 17 -14 36 -16 43 -9 25 -24 11 -38 -35 l-14 -48 -13 48
c-7 26 -16 47 -21 47 -5 0 -9 -3 -9 -7z"/>
<path d="M8650 3500 c0 -5 9 -10 20 -10 18 0 20 -7 20 -56 0 -34 4 -53 10 -49
6 3 10 28 10 56 0 37 4 49 15 49 8 0 15 5 15 10 0 6 -20 10 -45 10 -25 0 -45
-4 -45 -10z"/>
<path d="M8892 3448 c3 -62 3 -63 34 -66 44 -4 64 18 58 66 -9 60 -11 62 -54
62 l-41 0 3 -62z m68 27 c0 -9 -9 -15 -25 -15 -16 0 -25 6 -25 15 0 9 9 15 25
15 16 0 25 -6 25 -15z m5 -55 c0 -23 -49 -20 -53 3 -3 15 2 18 25 15 17 -2 28
-9 28 -18z"/>
<path d="M5562 3487 c-15 -19 -2 -86 19 -98 13 -6 19 -6 19 1 0 5 -4 10 -10
10 -15 0 -12 58 2 62 9 3 8 9 -4 21 -12 13 -18 14 -26 4z"/>
<path d="M6032 3480 c-7 -11 -8 -20 -3 -20 5 0 11 -15 13 -32 2 -24 8 -33 23
-35 11 -2 14 0 8 3 -17 7 -17 61 -1 66 9 3 8 9 -4 21 -21 21 -21 21 -36 -3z"/>
<path d="M8551 3483 c-10 -11 -10 -18 -2 -26 6 -6 11 -24 11 -39 0 -28 24 -48
38 -33 4 4 1 10 -5 12 -16 6 -17 60 -2 65 6 2 3 10 -8 20 -16 14 -20 14 -32 1z"/>
<path d="M5170 3428 c0 -30 -5 -59 -12 -66 -9 -9 -8 -12 4 -12 9 0 19 7 22 16
10 25 7 102 -4 109 -6 4 -10 -14 -10 -47z"/>
<path d="M5215 3456 c-30 -45 16 -91 61 -61 28 18 31 46 8 69 -22 23 -51 20
-69 -8z m63 -24 c4 -28 -24 -40 -45 -19 -21 21 -9 49 19 45 15 -2 24 -11 26
-26z"/>
<path d="M5437 3473 c-14 -13 -6 -42 13 -48 29 -9 25 -28 -5 -21 -14 4 -25 4
-25 2 0 -11 40 -26 54 -20 25 10 19 40 -11 54 l-28 13 30 6 c25 5 27 8 12 14
-23 9 -32 9 -40 0z"/>
<path d="M5626 3461 c-37 -41 14 -97 60 -66 29 18 31 46 6 68 -24 22 -45 21
-66 -2z m59 -31 c0 -18 -6 -26 -23 -28 -13 -2 -25 3 -28 12 -10 26 4 48 28 44
17 -2 23 -10 23 -28z"/>
<path d="M5898 3469 c-22 -12 -23 -52 -2 -73 17 -18 24 -19 48 -10 25 9 19 22
-8 17 -13 -3 -27 0 -30 6 -5 7 5 11 28 11 29 0 36 4 36 20 0 10 -9 24 -19 30
-24 12 -31 12 -53 -1z m52 -19 c0 -5 -12 -10 -26 -10 -14 0 -23 4 -19 10 3 6
15 10 26 10 10 0 19 -4 19 -10z"/>
<path d="M6106 3465 c-37 -37 1 -89 57 -78 24 5 27 10 27 44 0 24 -5 39 -12
39 -7 0 -22 3 -34 6 -13 3 -28 -1 -38 -11z m59 -15 c11 -18 -6 -50 -26 -50
-22 0 -34 22 -25 45 6 17 42 20 51 5z"/>
<path d="M6302 3468 c-34 -34 2 -97 48 -83 29 9 25 27 -4 19 -13 -3 -27 -1
-30 5 -5 7 5 11 28 11 40 0 47 17 20 44 -18 19 -45 21 -62 4z m53 -18 c4 -6
-5 -10 -19 -10 -14 0 -26 5 -26 10 0 6 9 10 19 10 11 0 23 -4 26 -10z"/>
<path d="M6401 3430 c2 -44 2 -44 8 -10 4 26 11 35 26 35 15 0 21 -8 23 -32 4
-39 22 -45 22 -7 0 43 -17 65 -50 62 -29 -2 -30 -4 -29 -48z"/>
<path d="M7920 3460 c-25 -25 -25 -32 -1 -61 16 -20 23 -22 47 -14 51 18 40
95 -13 95 -7 0 -22 -9 -33 -20z m58 -28 c4 -28 -24 -40 -45 -19 -14 13 -14 19
-3 32 18 22 44 15 48 -13z"/>
<path d="M8019 3460 c-3 -14 -2 -36 1 -50 5 -21 12 -25 43 -27 l37 -1 0 44 c0
51 -17 60 -22 12 -2 -25 -8 -33 -23 -33 -16 0 -21 8 -25 40 -5 33 -6 36 -11
15z"/>
<path d="M8348 3469 c-21 -12 -24 -62 -5 -78 7 -6 28 -9 45 -8 31 2 32 4 32
47 0 42 -2 45 -28 47 -15 1 -35 -3 -44 -8z m47 -39 c0 -16 -6 -26 -18 -28 -19
-4 -32 20 -23 44 9 25 41 13 41 -16z"/>
<path d="M8451 3425 c1 -50 1 -50 9 -12 8 44 14 51 35 44 9 -4 15 -19 15 -42
0 -19 5 -35 10 -35 14 0 12 76 -2 88 -7 6 -25 10 -40 9 -27 -2 -28 -4 -27 -52z"/>
<path d="M8751 3466 c-17 -20 -10 -67 11 -79 28 -18 68 7 68 42 0 44 -53 68
-79 37z m57 -34 c4 -28 -24 -40 -45 -19 -14 13 -14 19 -3 32 18 22 44 15 48
-13z"/>
<path d="M9018 3469 c-22 -12 -24 -62 -4 -79 17 -14 58 -10 63 6 2 7 -5 10
-20 7 -14 -3 -28 0 -31 6 -5 7 5 11 28 11 28 0 36 4 36 18 0 37 -36 52 -72 31z
m47 -19 c4 -6 -5 -10 -20 -10 -15 0 -24 4 -20 10 3 6 12 10 20 10 8 0 17 -4
20 -10z"/>
<path d="M9168 3469 c-21 -12 -24 -59 -6 -77 14 -14 48 -16 48 -3 0 5 -9 11
-20 14 -12 3 -20 14 -20 27 0 13 8 24 20 27 22 6 28 23 8 23 -7 0 -21 -5 -30
-11z"/>
<path d="M5622 3288 c-23 -23 -13 -47 25 -63 33 -14 35 -17 21 -31 -12 -13
-20 -14 -36 -5 -29 15 -37 14 -22 -5 8 -9 25 -14 44 -12 26 2 31 7 31 28 0 17
-8 29 -27 38 -16 7 -28 20 -28 28 0 16 26 19 35 4 4 -6 11 -7 17 -4 7 5 4 12
-7 21 -23 16 -37 17 -53 1z"/>
<path d="M5820 3235 c0 -37 4 -65 10 -65 6 0 10 28 10 65 0 37 -4 65 -10 65
-6 0 -10 -28 -10 -65z"/>
<path d="M7838 3289 c-30 -17 -22 -48 17 -65 19 -8 35 -18 35 -23 0 -15 -32
-22 -47 -10 -7 7 -17 9 -21 5 -8 -9 26 -36 44 -36 17 0 44 28 44 46 0 8 -16
22 -35 30 -19 8 -35 18 -35 24 0 16 21 22 36 9 19 -16 30 -4 14 16 -14 17 -28
19 -52 4z"/>
<path d="M8487 3278 c-9 -14 -12 -39 -10 -65 6 -51 23 -57 23 -9 0 19 6 37 13
39 9 4 9 8 -2 15 -9 7 -10 12 -2 16 6 4 11 11 11 17 0 17 -19 9 -33 -13z"/>
<path d="M8630 3235 c0 -37 4 -65 10 -65 6 0 10 28 10 65 0 37 -4 65 -10 65
-6 0 -10 -28 -10 -65z"/>
<path d="M8796 3293 c-3 -3 -6 -28 -6 -54 0 -50 -8 -63 -34 -53 -12 4 -16 20
-16 55 0 27 -4 49 -10 49 -5 0 -10 -25 -10 -55 0 -44 4 -56 20 -65 45 -24 80
13 80 85 0 33 -11 51 -24 38z"/>
<path d="M8990 3234 l0 -64 39 0 c94 0 93 113 -1 124 l-38 4 0 -64z m84 14
c15 -25 -3 -52 -38 -56 -24 -3 -26 -1 -26 38 0 39 2 41 26 38 15 -2 32 -11 38
-20z"/>
<path d="M5360 3230 l0 -60 40 0 c44 0 66 25 55 60 -7 21 -46 36 -64 25 -7 -3
-11 2 -11 14 0 12 -4 21 -10 21 -6 0 -10 -27 -10 -60z m77 -6 c8 -21 -19 -46
-40 -38 -17 6 -23 35 -10 47 12 13 44 7 50 -9z"/>
<path d="M6333 3230 c-12 -33 -17 -60 -12 -60 5 0 12 7 15 15 8 21 51 19 63
-2 5 -10 13 -15 16 -11 10 10 -31 113 -46 116 -9 1 -22 -20 -36 -58z m57 -12
c0 -4 -9 -8 -20 -8 -21 0 -24 8 -13 36 6 16 7 16 20 -2 7 -10 13 -21 13 -26z"/>
<path d="M6590 3230 c0 -33 4 -60 10 -60 6 0 10 16 10 35 0 28 4 35 20 35 16
0 20 -7 20 -35 0 -19 5 -35 10 -35 11 0 14 49 4 74 -3 9 -17 16 -30 16 -15 0
-24 6 -24 15 0 8 -4 15 -10 15 -6 0 -10 -27 -10 -60z"/>
<path d="M8846 3262 c15 -27 15 -31 0 -60 -18 -35 -4 -45 16 -12 13 20 13 20
30 -2 23 -31 35 -15 14 17 -16 25 -16 28 -1 52 21 32 9 45 -13 15 -17 -22 -17
-22 -30 -2 -19 31 -35 24 -16 -8z"/>
<path d="M5963 3266 c-6 -8 -8 -17 -3 -22 5 -5 10 -22 12 -39 2 -21 9 -31 23
-33 16 -3 18 -1 8 9 -17 17 -17 56 -1 61 9 3 8 9 -4 21 -20 20 -20 20 -35 3z"/>
<path d="M6731 3264 c-9 -11 -10 -18 -3 -23 5 -3 12 -20 14 -36 2 -21 9 -31
23 -32 11 -2 14 0 8 3 -17 7 -17 61 -1 66 9 3 8 9 -4 21 -20 20 -19 20 -37 1z"/>
<path d="M6997 3267 c-2 -7 -2 -30 2 -52 5 -29 12 -41 26 -43 16 -3 18 -1 8 9
-17 17 -17 56 -1 61 9 3 8 9 -4 21 -20 20 -24 21 -31 4z"/>
<path d="M4966 3239 c-20 -30 -6 -63 28 -67 33 -4 56 13 56 42 0 47 -57 63
-84 25z m62 -25 c4 -27 -26 -40 -46 -20 -21 20 -8 48 20 44 14 -2 24 -11 26
-24z"/>
<path d="M5060 3250 c0 -20 29 -80 38 -80 12 0 45 80 37 88 -3 3 -11 -9 -17
-26 -15 -40 -23 -40 -37 -2 -10 30 -21 40 -21 20z"/>
<path d="M5162 3248 c-7 -7 -12 -21 -12 -33 0 -12 5 -26 12 -33 14 -14 68 -16
68 -3 0 6 -12 9 -26 8 -15 -1 -29 4 -31 11 -3 8 7 12 31 12 23 0 36 5 36 13 0
19 -21 37 -45 37 -12 0 -26 -5 -33 -12z m58 -18 c0 -5 -11 -10 -25 -10 -14 0
-25 5 -25 10 0 6 11 10 25 10 14 0 25 -4 25 -10z"/>
<path d="M5261 3210 l1 -45 8 35 c5 19 13 36 19 38 19 6 12 21 -9 19 -17 -1
-20 -8 -19 -47z"/>
<path d="M5470 3234 c6 -14 15 -35 21 -46 9 -17 8 -24 -5 -34 -10 -7 -13 -15
-8 -18 12 -7 37 22 50 59 5 17 13 38 17 48 4 9 3 17 -3 17 -6 0 -15 -15 -22
-32 l-12 -33 -16 33 c-19 38 -36 43 -22 6z"/>
<path d="M5722 3248 c-7 -7 -12 -21 -12 -33 0 -12 5 -26 12 -33 7 -7 21 -12
33 -12 12 0 26 5 33 12 7 7 12 21 12 33 0 12 -5 26 -12 33 -7 7 -21 12 -33 12
-12 0 -26 -5 -33 -12z m62 -25 c9 -21 -16 -46 -37 -37 -9 3 -17 17 -17 30 0
19 5 24 24 24 13 0 27 -8 30 -17z"/>
<path d="M5862 3220 c3 -44 4 -45 41 -48 l37 -3 0 45 c0 55 -17 62 -22 9 -4
-47 -31 -53 -36 -8 -6 51 -24 55 -20 5z"/>
<path d="M6030 3216 c0 -25 5 -46 10 -46 6 0 10 18 10 39 0 22 -4 43 -10 46
-6 4 -10 -12 -10 -39z"/>
<path d="M6076 3245 c-30 -30 -10 -75 33 -75 39 0 57 24 45 58 -11 32 -53 41
-78 17z m62 -31 c4 -27 -26 -40 -46 -20 -21 20 -8 48 20 44 14 -2 24 -11 26
-24z"/>
<path d="M6181 3210 c2 -44 2 -44 8 -10 4 26 12 36 29 38 19 3 22 -1 22 -32 0
-20 5 -36 10 -36 15 0 12 66 -4 79 -7 6 -25 10 -40 9 -24 -2 -26 -6 -25 -48z"/>
<path d="M6441 3210 l1 -45 8 35 c5 19 13 36 19 38 19 6 12 21 -9 19 -17 -1
-20 -8 -19 -47z"/>
<path d="M6502 3248 c-13 -13 -16 -37 -6 -62 7 -19 59 -22 70 -5 5 8 -1 10
-18 6 -30 -8 -52 12 -42 38 5 12 15 16 36 13 17 -3 27 0 25 6 -5 16 -50 19
-65 4z"/>
<path d="M6690 3215 c0 -25 5 -45 10 -45 6 0 10 20 10 45 0 25 -4 45 -10 45
-5 0 -10 -20 -10 -45z"/>
<path d="M6802 3248 c-7 -7 -12 -21 -12 -33 0 -12 5 -26 12 -33 14 -14 68 -16
68 -3 0 6 -12 9 -26 8 -15 -1 -29 4 -31 11 -3 8 7 12 31 12 23 0 36 5 36 13 0
19 -21 37 -45 37 -12 0 -26 -5 -33 -12z m58 -18 c0 -5 -11 -10 -25 -10 -14 0
-25 5 -25 10 0 6 11 10 25 10 14 0 25 -4 25 -10z"/>
<path d="M6900 3239 c-18 -34 2 -69 39 -69 16 0 33 5 37 11 5 8 0 10 -17 6
-31 -8 -52 5 -47 29 2 13 12 19 31 19 34 -1 30 19 -6 23 -18 2 -29 -3 -37 -19z"/>
<path d="M7920 3220 c0 -44 21 -63 58 -53 19 5 22 12 21 52 -1 45 -1 45 -9 13
-15 -64 -50 -68 -50 -6 0 19 -4 34 -10 34 -5 0 -10 -18 -10 -40z"/>
<path d="M8032 3248 c-35 -35 14 -102 57 -78 28 14 27 24 -2 17 -29 -8 -50 6
-45 29 3 14 12 19 36 17 27 -1 31 1 21 13 -14 17 -51 18 -67 2z"/>
<path d="M8132 3248 c-34 -34 2 -98 48 -83 30 9 24 26 -7 23 -24 -3 -28 1 -31
26 -3 27 -2 29 28 22 23 -4 30 -2 28 7 -6 17 -50 21 -66 5z"/>
<path d="M8226 3244 c-21 -21 -20 -40 4 -64 24 -24 43 -25 61 -4 12 15 11 16
-8 10 -13 -4 -28 -4 -35 1 -9 5 -1 10 21 13 40 6 49 21 26 44 -21 20 -49 21
-69 0z m59 -14 c4 -6 -7 -10 -25 -10 -18 0 -29 4 -25 10 3 6 15 10 25 10 10 0
22 -4 25 -10z"/>
<path d="M8327 3253 c-14 -13 -6 -42 13 -48 30 -10 24 -26 -7 -20 -27 6 -27 6
-9 -9 24 -20 32 -20 48 -2 11 12 15 12 30 -1 22 -19 58 -8 58 18 0 12 -10 23
-25 29 -29 11 -34 23 -7 18 9 -1 19 2 22 7 3 6 -7 11 -21 13 -49 6 -45 -43 5
-61 6 -2 8 -8 4 -12 -3 -4 -19 0 -35 9 -15 8 -36 18 -45 22 -25 9 -23 24 3 24
11 0 17 5 14 10 -7 11 -38 13 -48 3z"/>
<path d="M8530 3220 c0 -44 21 -63 58 -53 19 4 22 13 22 51 0 50 -16 48 -22
-3 -5 -45 -32 -39 -36 8 -4 49 -22 48 -22 -3z"/>
<path d="M9122 3248 c-7 -7 -12 -25 -12 -40 0 -34 39 -55 71 -38 28 15 23 23
-10 15 -17 -3 -32 -2 -36 4 -4 7 7 11 29 11 28 0 36 4 36 18 0 24 -19 42 -45
42 -12 0 -26 -5 -33 -12z m58 -18 c0 -5 -12 -10 -26 -10 -14 0 -23 4 -19 10 3
6 15 10 26 10 10 0 19 -4 19 -10z"/>
<path d="M6811 2282 c-19 -9 -48 -34 -65 -55 -25 -31 -31 -49 -34 -100 -3 -56
0 -67 27 -110 93 -145 314 -96 337 75 7 51 -7 103 -38 143 -47 61 -157 83
-227 47z m138 -115 c6 -8 8 -17 4 -20 -7 -8 -33 11 -33 24 0 13 16 11 29 -4z
m-23 -28 c7 -12 -64 -89 -83 -89 -23 0 -14 33 19 67 33 34 52 41 64 22z"/>
<path d="M7918 2155 c-14 -30 -24 -32 -38 -5 -19 35 -30 22 -29 -32 2 -52 2
-52 8 -13 l6 40 16 -23 17 -23 15 22 c15 21 16 21 20 -17 3 -31 4 -26 5 19 2
63 -2 70 -20 32z"/>
<path d="M8173 2173 c-21 -8 -15 -22 7 -16 12 3 20 0 20 -7 0 -6 -9 -23 -20
-37 -27 -35 -25 -43 10 -43 17 0 30 5 30 10 0 6 -10 10 -22 10 l-21 0 23 25
c19 20 22 30 14 42 -12 19 -23 24 -41 16z"/>
<path d="M8236 2156 c-9 -33 -7 -36 19 -36 14 0 25 -6 25 -13 0 -22 -11 -27
-32 -16 -16 9 -19 8 -16 -3 6 -18 42 -22 57 -5 15 19 5 44 -20 50 -26 7 -24
27 3 27 26 0 16 13 -11 15 -12 1 -22 -7 -25 -19z"/>
<path d="M8379 2164 c-11 -13 -9 -14 14 -9 35 9 36 -13 2 -45 -33 -31 -32 -40
5 -40 17 0 30 5 30 10 0 6 -7 10 -17 10 -15 0 -15 1 0 18 21 23 22 58 1 66
-21 8 -20 8 -35 -10z"/>
<path d="M8454 2155 c-30 -46 12 -107 51 -75 20 16 19 65 -1 84 -21 22 -31 20
-50 -9z m54 -23 c4 -28 -14 -53 -34 -45 -14 5 -20 54 -7 67 14 13 38 0 41 -22z"/>
<path d="M8539 2164 c-11 -13 -9 -14 14 -9 35 9 36 -13 2 -45 -33 -31 -32 -40
5 -40 17 0 30 5 30 10 0 6 -7 10 -17 10 -15 0 -15 1 0 18 21 23 22 58 1 66
-21 8 -20 8 -35 -10z"/>
<path d="M8614 2155 c-30 -46 12 -107 51 -75 20 16 19 65 -1 84 -21 22 -31 20
-50 -9z m54 -23 c4 -28 -14 -53 -34 -45 -14 5 -20 54 -7 67 14 13 38 0 41 -22z"/>
<path d="M4990 2118 c0 -28 2 -49 4 -47 8 9 13 99 5 99 -5 0 -9 -23 -9 -52z"/>
<path d="M5051 2144 c-11 -26 -12 -26 -26 -8 -8 11 -14 15 -14 9 0 -5 6 -18
14 -29 14 -18 15 -17 27 10 l13 28 6 -44 6 -45 1 53 c2 57 -8 67 -27 26z"/>
<path d="M5300 2161 c0 -5 9 -7 20 -4 15 4 20 0 20 -14 0 -11 -9 -28 -20 -38
-28 -26 -25 -35 13 -34 23 1 26 3 10 6 -28 5 -28 8 -4 40 11 13 17 31 14 39
-6 15 -53 20 -53 5z"/>
<path d="M5377 2162 c6 -4 13 -28 16 -52 l4 -45 1 53 c2 44 -1 52 -15 52 -12
0 -14 -3 -6 -8z"/>
<path d="M5490 2161 c0 -5 8 -7 19 -4 30 8 33 -13 6 -45 -32 -39 -32 -42 8
-41 23 1 26 3 10 6 -28 5 -28 8 -4 40 11 13 17 31 14 39 -6 15 -53 20 -53 5z"/>
<path d="M5564 2146 c-8 -33 -2 -57 18 -69 26 -17 50 9 46 52 -3 31 -7 36 -30
39 -22 3 -29 -2 -34 -22z m54 -20 c4 -36 -11 -54 -33 -36 -15 13 -20 51 -8 64
15 15 38 0 41 -28z"/>
<path d="M5650 2161 c0 -5 8 -7 19 -4 30 8 33 -13 6 -45 -32 -39 -32 -42 8
-41 23 1 26 3 10 6 -28 5 -28 8 -4 40 11 13 17 31 14 39 -6 15 -53 20 -53 5z"/>
<path d="M5724 2146 c-8 -33 -2 -57 18 -69 26 -17 50 9 46 52 -3 31 -7 36 -30
39 -22 3 -29 -2 -34 -22z m54 -20 c4 -36 -11 -54 -33 -36 -15 13 -20 51 -8 64
15 15 38 0 41 -28z"/>
<path d="M5116 2138 c-36 -20 -7 -76 34 -63 27 9 28 60 1 68 -10 2 -26 0 -35
-5z m42 -32 c-2 -13 -10 -21 -23 -21 -23 0 -33 34 -14 45 20 13 40 -1 37 -24z"/>
<path d="M7972 2138 c-28 -28 -5 -69 36 -65 18 1 22 7 22 33 0 40 -32 58 -58
32z m48 -27 c0 -24 -25 -34 -40 -16 -15 18 -5 35 21 35 12 0 19 -7 19 -19z"/>
<path d="M5197 2120 c4 -14 7 -35 8 -47 0 -13 3 -23 6 -23 9 0 40 83 33 89 -2
3 -7 -5 -11 -17 -7 -28 -17 -28 -32 1 -11 21 -11 21 -4 -3z"/>
<path d="M8056 2119 c4 -13 8 -34 9 -46 0 -13 3 -23 6 -23 10 0 41 81 34 88
-3 4 -8 -4 -12 -16 -6 -25 -23 -30 -23 -8 0 8 -5 18 -11 22 -8 4 -9 -1 -3 -17z"/>
<path d="M8311 2074 c0 -11 3 -14 6 -6 3 7 2 16 -1 19 -3 4 -6 -2 -5 -13z"/>
<path d="M5421 2064 c0 -11 3 -14 6 -6 3 7 2 16 -1 19 -3 4 -6 -2 -5 -13z"/>
<path d="M3965 1234 c-46 -24 -63 -43 -81 -90 -38 -100 36 -204 146 -204 76 0
142 56 155 130 20 116 -117 218 -220 164z m79 -99 c3 -8 15 -15 26 -15 23 0
26 -13 6 -29 -8 -7 -12 -21 -9 -31 6 -22 -7 -26 -24 -9 -8 8 -17 8 -33 -1 -21
-11 -22 -10 -17 8 3 12 -1 26 -9 33 -20 16 -17 29 6 29 11 0 23 7 26 15 4 8
10 15 14 15 4 0 10 -7 14 -15z"/>
<path d="M8420 1080 c0 -45 4 -69 10 -65 6 3 10 33 10 65 0 32 -4 62 -10 65
-6 4 -10 -20 -10 -65z"/>
<path d="M2063 1133 c-18 -7 -16 -23 2 -23 11 0 15 -12 15 -51 0 -76 24 -59
28 19 3 64 -4 72 -45 55z"/>
<path d="M2137 1122 c-36 -40 -12 -112 37 -112 33 0 46 19 46 65 0 23 -5 46
-12 53 -18 18 -53 15 -71 -6z m59 -26 c8 -34 -4 -68 -23 -64 -21 4 -32 38 -22
66 11 29 37 28 45 -2z"/>
<path d="M2280 1094 c0 -60 14 -84 48 -84 40 0 52 17 52 77 0 69 -18 69 -22 1
-3 -46 -6 -53 -25 -56 -22 -3 -23 0 -23 52 0 43 -3 56 -15 56 -11 0 -15 -12
-15 -46z"/>
<path d="M2400 1075 c0 -49 3 -66 13 -62 8 2 12 24 12 62 0 38 -4 60 -12 63
-10 3 -13 -14 -13 -63z"/>
<path d="M2511 1126 c-7 -8 -11 -20 -10 -28 1 -7 -1 -21 -5 -30 -16 -37 -3
-53 45 -54 44 -2 46 -1 47 28 1 24 -3 28 -18 23 -13 -4 -22 1 -29 14 -18 33
-14 44 15 37 19 -5 25 -3 22 6 -6 19 -53 22 -67 4z m30 -82 c12 -14 11 -16 -5
-13 -11 2 -21 10 -24 17 -5 17 13 15 29 -4z"/>
<path d="M2650 1094 c0 -60 14 -84 48 -84 40 0 52 17 52 77 0 69 -18 69 -22 1
-3 -46 -6 -53 -25 -56 -22 -3 -23 0 -23 52 0 43 -3 56 -15 56 -11 0 -15 -12
-15 -46z"/>
<path d="M2779 1109 c19 -31 19 -32 -1 -65 -15 -25 -17 -34 -6 -34 7 0 19 9
26 21 13 20 13 20 32 -3 25 -31 36 -16 14 21 -16 28 -16 31 -1 55 21 31 21 36
4 36 -8 0 -18 -10 -24 -22 l-10 -23 -12 23 c-6 12 -18 22 -26 22 -12 0 -11 -6
4 -31z"/>
<path d="M4946 1124 c-13 -35 -7 -54 19 -54 28 0 44 -25 27 -42 -7 -7 -17 -6
-32 2 -18 10 -21 9 -18 -2 6 -18 46 -23 64 -8 24 21 17 51 -16 63 -36 14 -40
37 -5 37 14 0 25 5 25 10 0 17 -57 12 -64 -6z"/>
<path d="M5043 1133 c-23 -9 -14 -22 13 -20 38 3 40 -16 5 -56 -17 -19 -31
-37 -31 -41 0 -3 18 -6 40 -6 22 0 40 5 40 10 0 6 -12 10 -27 10 l-26 0 21 23
c42 45 17 102 -35 80z"/>
<path d="M5170 1075 c0 -37 4 -65 10 -65 6 0 10 11 10 25 0 16 6 25 15 25 9 0
21 -11 27 -25 6 -14 15 -25 20 -25 12 0 10 14 -4 28 -10 10 -10 17 0 32 25 41
3 70 -52 70 -25 0 -26 -2 -26 -65z m68 23 c-2 -15 -11 -24 -25 -26 -19 -3 -23
1 -23 22 0 21 5 26 26 26 21 0 25 -4 22 -22z"/>
<path d="M5833 1075 c0 -38 2 -56 4 -38 8 62 53 69 53 7 0 -19 5 -34 10 -34
15 0 12 53 -4 75 -8 12 -20 16 -34 13 -17 -5 -22 -1 -25 21 -2 14 -4 -5 -4
-44z"/>
<path d="M5965 1130 c-3 -5 3 -10 14 -10 19 0 21 -6 21 -55 0 -30 5 -55 10
-55 6 0 10 25 10 55 0 42 3 55 15 55 8 0 15 5 15 10 0 6 -18 10 -39 10 -22 0
-43 -4 -46 -10z"/>
<path d="M7820 1130 c0 -5 9 -10 20 -10 18 0 20 -7 20 -55 0 -30 5 -55 10 -55
6 0 10 25 10 55 0 42 3 55 15 55 8 0 15 5 15 10 0 6 -20 10 -45 10 -25 0 -45
-4 -45 -10z"/>
<path d="M8222 1123 c-11 -22 -3 -113 9 -113 5 0 9 15 9 33 0 18 6 39 12 45
10 10 10 15 -2 22 -10 7 -11 10 -2 10 6 0 12 5 12 10 0 17 -29 11 -38 -7z"/>
<path d="M8270 1130 c0 -5 5 -10 10 -10 6 0 10 5 10 10 0 6 -4 10 -10 10 -5 0
-10 -4 -10 -10z"/>
<path d="M8530 1119 c0 -16 -4 -19 -21 -14 -42 14 -80 -55 -46 -84 8 -6 30
-10 50 -9 l37 1 0 64 c0 35 -4 63 -10 63 -5 0 -10 -9 -10 -21z m-10 -44 c17
-20 5 -45 -20 -45 -11 0 -23 7 -26 15 -6 15 11 45 26 45 4 0 13 -7 20 -15z"/>
<path d="M8716 1128 c-1 -7 -8 -28 -14 -47 -17 -52 -2 -71 53 -69 34 2 44 6
40 16 -3 8 -5 20 -5 28 0 9 -5 12 -11 9 -13 -9 -49 23 -49 43 0 10 7 12 26 8
19 -5 25 -3 22 6 -6 18 -57 23 -62 6z m34 -89 c0 -5 -7 -9 -15 -9 -9 0 -15 9
-15 21 0 18 2 19 15 9 8 -7 15 -16 15 -21z"/>
<path d="M8860 1075 c0 -37 4 -65 10 -65 6 0 10 11 10 25 0 20 5 25 25 25 16
0 25 6 25 15 0 9 -9 15 -25 15 -16 0 -25 6 -25 15 0 10 10 15 30 15 17 0 30 5
30 10 0 6 -18 10 -40 10 l-40 0 0 -65z"/>
<path d="M8103 1110 c-8 -12 -9 -21 -3 -25 6 -3 10 -20 10 -36 0 -29 23 -50
38 -34 4 4 1 10 -5 12 -16 6 -17 45 -2 60 9 9 8 16 -4 27 -20 20 -20 20 -34
-4z"/>
<path d="M7920 1090 c-25 -25 -25 -42 -1 -64 21 -19 62 -18 69 1 2 9 -5 11
-27 7 -20 -4 -31 -2 -31 5 0 6 16 11 35 11 39 0 46 17 17 43 -24 22 -38 21
-62 -3z m45 -10 c3 -5 -3 -10 -15 -10 -12 0 -18 5 -15 10 3 6 10 10 15 10 5 0
12 -4 15 -10z"/>
<path d="M8061 1096 c-11 -13 -17 -14 -28 -5 -19 16 -29 3 -13 -16 10 -12 10
-19 2 -27 -7 -7 -12 -19 -12 -27 0 -11 3 -11 19 3 16 15 19 15 31 1 21 -25 33
-17 15 11 -13 20 -14 29 -5 39 7 8 10 19 8 26 -2 7 -8 6 -17 -5z"/>
<path d="M8328 1099 c-22 -12 -24 -62 -4 -79 17 -14 58 -10 63 6 2 7 -5 10
-20 7 -14 -3 -28 0 -31 6 -5 7 5 11 28 11 40 0 47 17 20 44 -18 18 -32 20 -56
5z m47 -19 c4 -6 -5 -10 -20 -10 -15 0 -24 4 -20 10 3 6 12 10 20 10 8 0 17
-4 20 -10z"/>
<path d="M8583 1103 c-21 -8 -15 -44 7 -50 11 -3 20 -10 20 -15 0 -6 -9 -8
-21 -5 -13 3 -19 1 -16 -6 5 -17 35 -21 52 -7 21 18 18 29 -10 42 -30 13 -34
32 -5 23 24 -7 27 10 4 19 -9 3 -16 6 -17 5 -1 0 -8 -3 -14 -6z"/>
<path d="M8968 1099 c-21 -12 -24 -59 -6 -77 7 -7 21 -12 33 -12 12 0 26 5 33
12 19 19 15 66 -7 78 -24 12 -31 12 -53 -1z m47 -39 c0 -16 -6 -26 -18 -28
-19 -4 -32 20 -23 44 9 25 41 13 41 -16z"/>
<path d="M9078 1103 c-14 -4 -18 -15 -18 -49 0 -24 5 -44 10 -44 6 0 10 14 10
31 0 18 7 37 17 44 18 13 7 24 -19 18z"/>
<path d="M9138 1103 c-14 -3 -18 -15 -18 -49 0 -53 18 -59 22 -7 4 49 28 57
28 9 0 -19 5 -38 10 -41 11 -7 16 3 24 55 6 33 4 35 -22 36 -15 1 -35 -1 -44
-3z"/>
<path d="M5282 1088 c-7 -7 -12 -21 -12 -33 0 -12 5 -26 12 -33 15 -15 64 -16
73 -2 4 6 -6 9 -26 8 -18 -2 -34 2 -36 10 -3 8 7 12 31 12 23 0 36 5 36 13 0
19 -21 37 -45 37 -12 0 -26 -5 -33 -12z m56 -16 c2 -7 -7 -12 -22 -12 -27 0
-35 15 -13 23 17 7 30 3 35 -11z"/>
<path d="M5380 1080 c0 -10 9 -24 20 -30 30 -16 25 -33 -7 -25 -21 5 -25 4
-17 -5 17 -17 58 -8 62 12 2 12 -6 21 -23 28 -30 11 -24 34 7 24 14 -4 18 -2
14 5 -4 6 -18 11 -32 11 -17 0 -24 -5 -24 -20z"/>
<path d="M5462 1088 c-7 -7 -12 -21 -12 -33 0 -12 5 -26 12 -33 15 -15 64 -16
73 -2 4 6 -6 9 -26 8 -18 -2 -34 2 -36 10 -3 8 7 12 31 12 23 0 36 5 36 13 0
19 -21 37 -45 37 -12 0 -26 -5 -33 -12z m56 -16 c2 -7 -7 -12 -22 -12 -27 0
-35 15 -13 23 17 7 30 3 35 -11z"/>
<path d="M5572 1088 c-16 -16 -15 -53 1 -66 7 -6 27 -10 45 -10 31 1 32 3 32
43 0 40 -1 42 -33 43 -19 1 -39 -4 -45 -10z m46 -7 c20 -12 11 -56 -12 -56
-27 0 -43 29 -27 49 15 18 21 19 39 7z"/>
<path d="M5670 1054 c0 -24 5 -44 10 -44 6 0 10 12 10 27 0 14 7 34 15 43 15
16 14 18 -10 18 -23 0 -25 -4 -25 -44z"/>
<path d="M5736 1084 c-9 -8 -16 -20 -16 -25 0 -22 22 -49 40 -49 28 0 51 11
44 22 -3 5 -11 4 -20 -3 -16 -13 -44 3 -44 26 0 23 28 39 44 26 9 -7 17 -8 20
-3 6 10 -15 22 -39 22 -8 0 -21 -7 -29 -16z"/>
<path d="M6062 1088 c-29 -29 -7 -78 34 -78 13 0 26 5 29 10 4 7 -2 9 -17 5
-16 -4 -29 -1 -37 9 -12 14 -8 16 28 16 44 0 46 2 31 31 -12 21 -50 25 -68 7z
m56 -15 c2 -9 -7 -13 -28 -13 -28 0 -31 2 -20 15 15 18 41 16 48 -2z"/>
<path d="M6161 1050 c2 -34 3 -37 6 -15 3 17 12 38 20 47 14 15 13 17 -6 15
-18 -1 -21 -7 -20 -47z"/>
<path d="M6221 1051 l2 -46 6 40 c8 53 35 55 39 3 2 -21 7 -38 12 -38 5 0 10
17 12 38 2 25 8 37 18 37 10 0 16 -12 18 -37 4 -42 22 -52 22 -12 0 51 -15 63
-75 62 l-55 -2 1 -45z"/>
<path d="M6373 1083 c-4 -11 1 -22 15 -31 30 -20 27 -34 -5 -26 -22 5 -25 4
-17 -6 16 -17 58 -8 62 12 2 12 -6 21 -23 28 -30 11 -24 34 7 24 14 -4 18 -2
14 5 -11 17 -46 13 -53 -6z"/>
<path d="M8270 1055 c0 -25 5 -45 10 -45 6 0 10 20 10 45 0 25 -4 45 -10 45
-5 0 -10 -20 -10 -45z"/>
<path d="M2060 855 l0 -65 40 0 c22 0 40 5 40 10 0 6 -11 10 -25 10 -24 0 -25
3 -25 55 0 42 -3 55 -15 55 -12 0 -15 -14 -15 -65z"/>
<path d="M2744 898 c-11 -27 -3 -98 11 -101 6 -1 11 15 13 36 4 48 20 48 24 0
4 -50 26 -55 30 -7 2 21 9 39 17 42 10 3 12 0 7 -13 -10 -26 20 -65 49 -65 33
0 61 41 46 69 -14 25 -45 35 -70 22 -11 -6 -22 -7 -25 -2 -3 4 -18 7 -33 5
-35 -4 -47 4 -32 22 9 11 8 14 -8 14 -11 0 -24 -10 -29 -22z m171 -58 c0 -16
-6 -26 -18 -28 -19 -4 -32 20 -23 44 9 25 41 13 41 -16z"/>
<path d="M5670 900 c0 -15 -7 -20 -28 -20 -34 0 -52 -16 -52 -46 0 -29 20 -44
58 -41 l32 2 0 63 c0 34 -2 62 -5 62 -3 0 -5 -9 -5 -20z m-11 -44 c25 -30 -16
-67 -44 -40 -11 12 -12 20 -5 35 12 22 33 25 49 5z"/>
<path d="M5972 855 c0 -39 3 -60 7 -47 l6 24 19 -21 c11 -12 24 -21 29 -21 6
0 0 11 -13 25 -23 24 -23 25 -5 45 10 11 13 20 8 20 -6 0 -17 -7 -24 -17 -13
-15 -15 -12 -20 23 -5 30 -6 23 -7 -31z"/>
<path d="M7900 901 c0 -14 -6 -17 -24 -14 -18 4 -29 -2 -41 -21 -16 -24 -16
-28 -1 -51 13 -20 24 -24 51 -22 l35 2 0 63 c0 35 -4 62 -10 62 -5 0 -10 -8
-10 -19z m-2 -59 c4 -28 -24 -40 -45 -19 -14 13 -14 19 -3 32 18 22 44 15 48
-13z"/>
<path d="M8120 910 c0 -5 5 -10 10 -10 6 0 10 5 10 10 0 6 -4 10 -10 10 -5 0
-10 -4 -10 -10z"/>
<path d="M8600 871 c0 -70 31 -97 81 -71 15 9 19 22 19 65 0 30 -4 55 -10 55
-5 0 -10 -22 -10 -49 0 -36 -4 -51 -16 -55 -27 -10 -44 13 -44 60 0 24 -4 44
-10 44 -5 0 -10 -22 -10 -49z"/>
<path d="M8720 861 c0 -33 5 -63 10 -66 6 -4 10 18 10 59 0 37 -4 66 -10 66
-6 0 -10 -26 -10 -59z"/>
<path d="M5752 885 c-7 -9 -8 -15 -2 -15 5 0 10 -16 10 -35 0 -35 22 -57 38
-40 4 4 1 10 -5 12 -16 6 -17 63 -2 63 6 0 4 7 -5 15 -18 18 -18 18 -34 0z"/>
<path d="M2156 874 c-38 -38 -3 -93 50 -80 35 9 30 27 -6 20 -19 -4 -30 -2
-30 5 0 6 16 11 35 11 19 0 35 4 35 9 0 5 11 4 25 -2 32 -15 32 -31 0 -23 -14
4 -25 2 -25 -4 0 -15 48 -24 63 -11 10 7 17 7 24 0 18 -18 58 -6 61 19 2 12
-1 22 -5 22 -5 0 -18 7 -29 16 -18 15 -18 15 9 9 30 -6 38 10 8 20 -26 8 -51
-4 -51 -26 0 -10 4 -19 8 -19 5 0 17 -7 28 -16 18 -15 18 -15 -10 -9 -15 3
-35 13 -43 20 -8 8 -19 15 -24 15 -5 0 -9 5 -9 11 0 6 9 8 20 4 11 -3 20 -2
20 4 0 19 -41 23 -59 7 -16 -15 -19 -15 -31 -1 -16 19 -44 19 -64 -1z m49 -14
c3 -5 -3 -10 -14 -10 -12 0 -21 5 -21 10 0 6 6 10 14 10 8 0 18 -4 21 -10z"/>
<path d="M2416 877 c-28 -20 -18 -69 16 -81 53 -19 91 47 46 78 -27 19 -39 20
-62 3z m49 -37 c0 -16 -6 -26 -18 -28 -19 -4 -32 20 -23 44 9 25 41 13 41 -16z"/>
<path d="M2516 882 c-10 -9 -7 -92 3 -92 6 0 11 17 13 37 2 27 8 39 21 41 14
3 17 -4 17 -38 0 -29 4 -40 13 -37 12 4 15 72 3 84 -8 9 -63 13 -70 5z"/>
<path d="M2623 883 c-14 -5 -18 -43 -5 -43 5 0 17 -7 28 -16 18 -15 18 -15 -8
-9 -16 3 -28 1 -28 -4 0 -16 20 -23 46 -17 33 9 32 43 -1 52 -14 3 -25 10 -25
15 0 5 12 6 28 3 24 -7 26 -6 13 9 -14 17 -26 20 -48 10z"/>
<path d="M2960 838 c0 -56 17 -65 22 -11 4 49 26 55 30 8 4 -48 22 -50 26 -2
5 53 32 51 32 -3 0 -22 5 -40 10 -40 15 0 13 90 -2 92 -7 0 -37 2 -65 2 l-53
2 0 -48z"/>
<path d="M7952 878 c-22 -22 -15 -67 12 -80 26 -11 56 -5 56 12 0 6 -10 8 -24
4 -13 -3 -27 -1 -30 5 -5 7 5 11 28 11 28 0 36 4 36 18 0 24 -19 42 -45 42
-12 0 -26 -5 -33 -12z m53 -18 c4 -6 -5 -10 -20 -10 -15 0 -24 4 -20 10 3 6
12 10 20 10 8 0 17 -4 20 -10z"/>
<path d="M8044 876 c-7 -19 12 -46 32 -46 8 0 14 -5 14 -11 0 -7 -10 -9 -25
-5 -25 6 -35 -7 -14 -19 19 -13 59 4 59 25 0 11 -4 20 -8 20 -5 0 -17 7 -28
16 -18 15 -18 15 4 11 15 -4 22 -1 19 6 -6 19 -46 20 -53 3z"/>
<path d="M8127 883 c-11 -10 -8 -81 3 -88 6 -4 10 13 10 44 0 52 -1 56 -13 44z"/>
<path d="M8172 878 c-32 -32 1 -94 45 -83 17 4 22 2 18 -6 -4 -6 -20 -9 -36
-7 -18 3 -28 0 -26 -6 6 -17 62 -19 76 -2 7 8 11 35 9 62 -3 47 -4 48 -38 52
-19 1 -41 -3 -48 -10z m58 -23 c10 -12 10 -18 0 -30 -25 -30 -61 -7 -46 30 3
8 12 15 19 15 8 0 20 -7 27 -15z"/>
<path d="M8280 836 c0 -53 16 -54 22 -1 4 42 32 40 36 -2 4 -43 22 -42 22 1 0
40 -17 57 -54 54 -24 -2 -26 -6 -26 -52z"/>
<path d="M8814 865 c-15 -23 -15 -27 0 -50 17 -25 31 -30 60 -19 25 10 18 25
-8 18 -18 -4 -27 -1 -35 14 -13 25 9 47 39 37 23 -7 28 10 4 19 -29 11 -43 6
-60 -19z"/>
<path d="M8916 874 c-30 -30 -9 -84 33 -84 22 0 51 30 51 53 0 21 -27 47 -50
47 -10 0 -26 -7 -34 -16z m58 -21 c4 -9 0 -23 -9 -32 -13 -14 -17 -14 -31 1
-9 9 -14 24 -11 32 8 21 43 20 51 -1z"/>
<path d="M9015 881 c-9 -9 -5 -80 5 -86 6 -3 10 5 10 19 0 35 10 56 26 56 9 0
14 -12 14 -34 0 -48 18 -55 22 -9 4 52 32 52 36 0 2 -20 7 -35 13 -32 13 9 11
71 -4 83 -12 10 -113 13 -122 3z"/>
<path d="M9169 880 c-7 -35 -6 -86 1 -103 l9 -22 7 22 c3 13 10 20 15 17 13
-7 11 3 -3 26 -10 16 -10 24 0 40 6 11 12 21 12 23 0 5 -40 3 -41 -3z"/>
<path d="M4951 833 c19 -45 19 -48 3 -60 -16 -12 -16 -13 -2 -13 20 0 21 2 47
68 11 29 17 52 12 52 -5 0 -14 -15 -21 -32 l-12 -33 -16 33 c-24 50 -34 38
-11 -15z"/>
<path d="M5031 858 c-15 -40 14 -74 54 -64 52 13 38 86 -16 86 -22 0 -32 -6
-38 -22z m64 -18 c0 -18 -6 -26 -23 -28 -27 -4 -40 22 -22 44 19 22 45 13 45
-16z"/>
<path d="M5130 852 c0 -42 20 -64 55 -59 27 3 30 7 33 45 2 25 -1 42 -7 42 -6
0 -11 -13 -11 -28 0 -15 -5 -33 -11 -39 -20 -20 -39 -3 -39 33 0 19 -4 34 -10
34 -5 0 -10 -13 -10 -28z"/>
<path d="M5280 836 c0 -55 17 -62 22 -8 2 29 7 37 23 37 16 0 21 -9 26 -40 l7
-40 -2 45 c-1 44 -1 45 -38 48 l-38 3 0 -45z"/>
<path d="M5392 868 c-16 -16 -15 -53 2 -68 18 -15 58 -10 64 8 3 11 0 12 -14
4 -21 -10 -44 -6 -44 9 0 5 16 9 35 9 22 0 35 5 35 13 0 19 -21 37 -45 37 -12
0 -26 -5 -33 -12z m56 -15 c2 -8 -6 -13 -22 -13 -25 0 -33 10 -19 24 10 10 36
3 41 -11z"/>
<path d="M5490 860 c-9 -17 -8 -26 5 -46 16 -26 41 -30 65 -13 12 9 11 10 -7
6 -12 -3 -30 1 -40 9 -16 12 -14 13 20 14 34 0 38 3 35 23 -4 32 -62 37 -78 7z
m54 4 c26 -10 18 -24 -14 -24 -29 0 -38 9 -23 23 8 9 17 9 37 1z"/>
<path d="M5822 868 c-28 -28 -7 -78 33 -78 27 0 45 18 45 45 0 27 -18 45 -45
45 -12 0 -26 -5 -33 -12z m57 -12 c16 -20 3 -46 -24 -46 -27 0 -36 17 -23 43
10 20 31 22 47 3z"/>
<path d="M6061 833 l2 -48 6 40 c5 31 10 40 26 40 16 0 21 -8 23 -37 4 -45 22
-51 22 -9 0 49 -9 61 -46 61 l-34 0 1 -47z"/>
<path d="M6158 855 c-9 -21 -8 -28 7 -45 10 -11 26 -20 35 -20 9 0 25 9 35 20
27 30 7 70 -35 70 -23 0 -33 -6 -42 -25z m60 6 c23 -14 10 -46 -18 -46 -16 0
-26 6 -28 19 -3 16 12 36 28 36 3 0 11 -4 18 -9z"/>
<path d="M6260 873 c0 -21 22 -83 29 -83 4 0 13 15 18 33 l10 32 13 -32 c16
-44 25 -41 38 9 13 52 6 64 -10 17 l-12 -34 -8 33 c-10 38 -25 42 -34 7 -7
-30 -24 -33 -24 -6 0 11 -4 23 -10 26 -5 3 -10 3 -10 -2z"/>
<path d="M6450 865 c-10 -12 -11 -24 -4 -43 8 -22 16 -27 47 -28 37 -1 37 -1
37 40 0 40 -1 42 -34 44 -20 2 -38 -4 -46 -13z m64 -18 c9 -14 7 -21 -7 -32
-25 -18 -47 -9 -47 19 0 40 32 48 54 13z"/>
<path d="M6560 860 c0 -13 10 -24 27 -31 21 -8 24 -12 13 -19 -9 -6 -20 -4
-29 3 -11 10 -13 9 -9 -3 2 -8 15 -15 29 -15 34 0 37 32 5 46 -29 14 -24 33 6
23 14 -4 18 -2 14 5 -4 6 -18 11 -32 11 -17 0 -24 -5 -24 -20z"/>
<path d="M6692 868 c-16 -16 -15 -53 2 -67 7 -6 28 -10 45 -9 29 2 31 5 31 43
0 39 -1 41 -33 43 -18 1 -38 -3 -45 -10z m58 -13 c18 -21 5 -45 -25 -45 -20 0
-25 5 -25 23 0 39 26 50 50 22z"/>
<path d="M8430 850 c0 -5 25 -10 55 -10 30 0 55 5 55 10 0 6 -25 10 -55 10
-30 0 -55 -4 -55 -10z"/>
<path d="M3245 700 c-53 -21 -59 -79 -13 -113 37 -27 77 -15 99 31 l17 33 9
-37 c11 -47 28 -54 41 -17 l10 28 11 -29 c9 -22 14 -26 25 -17 14 12 31 79 22
88 -2 3 -11 -8 -19 -23 l-14 -27 -7 27 c-8 31 -26 34 -33 6 -7 -26 -19 -26
-26 1 -3 12 -12 19 -19 17 -7 -3 -19 3 -28 13 -19 22 -49 30 -75 19z m63 -56
c3 -18 -2 -32 -14 -41 -24 -17 -30 -17 -54 7 -25 25 -25 35 0 60 27 27 64 13
68 -26z"/>
<path d="M8076 701 c-4 -7 -5 -15 -2 -18 9 -9 19 4 14 18 -4 11 -6 11 -12 0z"/>
<path d="M2062 638 c3 -63 3 -63 35 -66 24 -2 39 3 56 21 l24 23 21 -23 c24
-27 41 -29 68 -8 18 15 17 16 -13 10 -18 -4 -34 -2 -38 4 -4 7 7 11 29 11 28
0 36 4 36 18 0 41 -60 58 -82 23 -11 -18 -13 -17 -27 13 -14 27 -22 31 -64 34
l-48 3 3 -63z m86 4 c3 -26 -1 -34 -20 -41 -32 -12 -38 -6 -38 40 0 38 2 40
28 37 22 -2 28 -8 30 -36z m107 -2 c4 -6 -5 -10 -20 -10 -15 0 -24 4 -20 10 3
6 12 10 20 10 8 0 17 -4 20 -10z"/>
<path d="M2370 690 c0 -5 4 -10 9 -10 6 0 13 5 16 10 3 6 -1 10 -9 10 -9 0
-16 -4 -16 -10z"/>
<path d="M2625 690 c3 -5 10 -10 16 -10 5 0 9 5 9 10 0 6 -7 10 -16 10 -8 0
-12 -4 -9 -10z"/>
<path d="M2922 638 c3 -70 21 -85 26 -23 l3 40 19 -25 18 -24 21 24 20 25 1
-43 c0 -26 4 -41 10 -37 6 3 10 33 10 66 0 67 -12 75 -46 32 l-22 -28 -13 28
c-7 15 -20 27 -31 27 -17 0 -19 -7 -16 -62z"/>
<path d="M4940 651 c0 -52 17 -81 49 -81 30 0 41 22 39 79 l-1 56 -6 -55 c-6
-50 -8 -55 -31 -55 -23 0 -25 4 -28 53 -4 66 -22 69 -22 3z"/>
<path d="M5070 668 c19 -31 19 -32 -1 -59 -21 -30 -23 -39 -11 -39 5 0 15 12
23 26 l13 26 23 -29 c27 -33 30 -25 7 18 -14 28 -14 33 1 56 22 32 11 43 -13
13 l-19 -24 -12 22 c-6 12 -16 22 -21 22 -5 0 -1 -14 10 -32z"/>
<path d="M5210 635 l0 -65 30 0 c44 0 84 42 75 78 -8 35 -31 52 -72 52 l-33 0
0 -65z m78 33 c31 -31 3 -82 -40 -76 -19 2 -23 10 -26 46 -3 40 -2 42 25 42
16 0 34 -5 41 -12z"/>
<path d="M2297 664 c-14 -14 -7 -42 13 -47 11 -3 20 -10 20 -17 0 -7 -8 -9
-20 -5 -11 3 -20 2 -20 -4 0 -16 40 -24 55 -11 22 19 18 39 -10 50 -29 11 -33
23 -7 18 11 -2 20 2 21 7 2 12 -41 19 -52 9z"/>
<path d="M2370 626 c0 -25 5 -48 10 -51 6 -4 10 13 10 44 0 28 -4 51 -10 51
-5 0 -10 -20 -10 -44z"/>
<path d="M2422 658 c-20 -20 -15 -66 9 -78 11 -7 27 -9 35 -6 8 3 14 1 14 -5
0 -7 -12 -9 -30 -7 -19 3 -29 1 -27 -6 2 -6 18 -12 35 -14 39 -4 54 21 50 81
-3 40 -5 42 -38 45 -19 2 -41 -3 -48 -10z m56 -32 c5 -24 -10 -38 -31 -30 -17
6 -23 35 -10 48 12 12 38 1 41 -18z"/>
<path d="M2524 656 c-8 -22 0 -81 11 -81 6 0 11 17 13 38 3 30 7 37 20 35 12
-2 18 -15 20 -41 2 -20 7 -35 13 -32 13 9 11 69 -3 83 -17 17 -67 15 -74 -2z"/>
<path d="M2625 658 c-9 -23 -2 -83 10 -83 14 0 19 75 6 88 -7 7 -12 5 -16 -5z"/>
<path d="M2664 656 c-8 -22 0 -81 11 -81 6 0 11 17 13 38 3 30 7 37 20 35 12
-2 18 -15 20 -41 2 -20 7 -35 13 -32 13 9 11 69 -3 83 -17 17 -67 15 -74 -2z"/>
<path d="M2775 654 c-20 -21 -19 -47 4 -68 13 -12 27 -15 42 -11 15 5 19 4 14
-5 -5 -7 -19 -10 -37 -6 -21 4 -28 2 -26 -7 6 -17 56 -21 74 -6 9 7 14 30 14
64 l0 52 -35 1 c-19 1 -41 -5 -50 -14z m62 -20 c3 -8 -2 -23 -11 -32 -14 -15
-18 -15 -31 -1 -9 9 -13 23 -9 32 8 21 43 22 51 1z"/>
<path d="M3064 658 c22 -56 29 -92 18 -96 -17 -5 -15 -22 4 -22 14 0 64 94 64
120 0 20 -17 9 -29 -17 l-13 -28 -14 28 c-14 26 -41 39 -30 15z"/>
<path d="M3490 619 c0 -56 16 -58 22 -4 2 19 9 30 18 30 9 0 16 -11 18 -30 6
-54 23 -54 20 0 -3 50 -3 50 -40 53 l-38 3 0 -52z"/>
<path d="M5350 652 c-18 -14 -21 -25 -16 -45 6 -27 44 -46 65 -32 20 11 11 22
-13 18 -13 -3 -27 0 -30 6 -5 7 5 11 28 11 29 0 36 4 36 20 0 10 -9 24 -19 30
-25 13 -25 13 -51 -8z m50 -12 c0 -5 -12 -10 -26 -10 -14 0 -23 4 -19 10 3 6
15 10 26 10 10 0 19 -4 19 -10z"/>
<path d="M5447 658 c-24 -13 -21 -27 8 -40 30 -14 33 -33 4 -25 -13 3 -19 1
-16 -6 5 -15 28 -19 46 -8 18 12 7 41 -19 48 -11 3 -20 10 -20 15 0 6 9 8 20
5 11 -3 20 -2 20 3 0 13 -25 18 -43 8z"/>
<path d="M5571 651 c-25 -25 -26 -30 -5 -60 12 -17 22 -21 41 -16 18 4 24 2
20 -7 -2 -7 -18 -12 -36 -12 -17 1 -28 -2 -25 -7 8 -13 58 -11 72 3 18 18 16
108 -2 108 -8 0 -21 3 -29 6 -9 3 -25 -4 -36 -15z m54 -31 c0 -18 -6 -26 -23
-28 -13 -2 -25 3 -28 12 -10 26 4 48 28 44 17 -2 23 -10 23 -28z"/>
<path d="M5693 662 c-20 -3 -23 -9 -23 -48 0 -28 4 -43 10 -39 6 3 10 22 10
41 0 27 4 34 20 34 16 0 20 -7 20 -34 0 -19 5 -38 10 -41 6 -4 10 10 10 34 0
44 -17 60 -57 53z"/>
<path d="M5788 659 c-25 -14 -23 -65 2 -79 12 -6 30 -8 40 -5 31 10 23 22 -10
17 -18 -3 -30 0 -30 7 0 6 16 11 35 11 41 0 47 20 13 44 -26 19 -27 19 -50 5z
m47 -19 c4 -6 -5 -10 -19 -10 -14 0 -26 5 -26 10 0 6 9 10 19 10 11 0 23 -4
26 -10z"/>
<path d="M7837 664 c-14 -14 -7 -42 13 -47 11 -3 20 -10 20 -17 0 -7 -8 -9
-20 -5 -23 7 -27 -10 -4 -19 17 -7 54 9 54 24 0 4 -12 18 -27 30 -26 20 -27
21 -5 17 15 -4 22 -1 19 6 -4 14 -39 21 -50 11z"/>
<path d="M7910 650 c-22 -41 17 -89 60 -75 29 9 25 28 -4 21 -14 -3 -28 -2
-31 4 -4 6 6 10 24 10 36 0 46 13 31 40 -15 27 -65 27 -80 0z m65 -10 c4 -6
-5 -10 -19 -10 -14 0 -26 5 -26 10 0 6 9 10 19 10 11 0 23 -4 26 -10z"/>
<path d="M8010 625 c0 -25 5 -45 10 -45 6 0 10 14 10 30 0 18 6 33 15 36 24 9
17 24 -10 24 -23 0 -25 -4 -25 -45z"/>
<path d="M8070 625 c0 -25 5 -45 10 -45 6 0 10 20 10 45 0 25 -4 45 -10 45 -5
0 -10 -20 -10 -45z"/>
<path d="M8122 658 c-34 -34 2 -97 48 -83 29 9 25 27 -4 19 -13 -3 -27 -1 -30
5 -5 7 5 11 28 11 28 0 36 4 36 18 0 24 -19 42 -45 42 -12 0 -26 -5 -33 -12z
m53 -18 c4 -6 -5 -10 -20 -10 -15 0 -24 4 -20 10 3 6 12 10 20 10 8 0 17 -4
20 -10z"/>
<path d="M8217 664 c-14 -15 -6 -35 18 -46 28 -13 23 -32 -6 -23 -10 4 -19 2
-19 -4 0 -16 40 -24 55 -11 22 19 18 39 -10 50 -29 11 -33 23 -7 18 11 -2 20
2 21 7 2 12 -41 19 -52 9z"/>
<path d="M5523 615 c0 -27 2 -38 4 -22 2 15 2 37 0 50 -2 12 -4 0 -4 -28z"/>
<path d="M5882 613 c1 -40 2 -42 5 -13 2 19 11 41 20 48 15 11 14 12 -5 12
-20 0 -22 -5 -20 -47z"/>
<path d="M2067 483 c-4 -3 -7 -33 -7 -65 0 -45 3 -58 15 -58 8 0 15 9 15 20 0
13 7 20 18 20 24 0 42 19 42 45 0 12 -5 26 -12 33 -13 13 -60 16 -71 5z m58
-38 c0 -11 -8 -21 -17 -23 -14 -3 -18 3 -18 23 0 20 4 26 18 23 9 -2 17 -12
17 -23z"/>
<path d="M2400 470 c0 -15 -7 -20 -28 -20 -33 0 -52 -16 -52 -45 0 -31 19 -45
62 -45 l38 0 0 65 c0 37 -4 65 -10 65 -5 0 -10 -9 -10 -20z m-5 -65 c0 -23
-34 -33 -45 -14 -13 20 1 40 24 37 13 -2 21 -10 21 -23z"/>
<path d="M2648 458 c-3 -7 -23 -13 -47 -13 -51 0 -75 -25 -60 -63 7 -19 15
-23 46 -20 21 2 37 8 37 13 -1 6 -16 8 -34 7 -28 -3 -31 -1 -28 20 3 20 9 23
46 25 42 2 42 1 42 -33 0 -27 4 -34 20 -34 11 0 20 5 20 10 0 6 -4 10 -10 10
-14 0 -12 48 2 52 9 3 8 9 -4 21 -20 20 -25 21 -30 5z"/>
<path d="M2160 405 c0 -33 4 -45 15 -45 10 0 15 11 15 35 0 19 5 35 10 35 6 0
10 5 10 10 0 6 -11 10 -25 10 -23 0 -25 -4 -25 -45z"/>
<path d="M2219 429 c-24 -46 21 -84 75 -63 19 7 21 55 4 72 -20 20 -66 14 -79
-9z m66 -24 c0 -13 -8 -21 -22 -23 -19 -3 -23 1 -23 23 0 22 4 26 23 23 14 -2
22 -10 22 -23z"/>
<path d="M2442 408 c3 -42 4 -43 41 -46 l37 -3 0 45 c0 25 -4 46 -10 46 -5 0
-10 -16 -10 -35 0 -28 -4 -35 -20 -35 -16 0 -20 7 -20 35 0 19 -5 35 -11 35
-6 0 -9 -17 -7 -42z"/>
</g>
</svg>
