<?xml version="1.0" encoding="iso-8859-1"?>
<!-- Uploaded to: SVG Repo, www.svgrepo.com, Generator: SVG Repo Mixer Tools -->
<svg version="1.1" id="Layer_1" xmlns="http://www.w3.org/2000/svg" xmlns:xlink="http://www.w3.org/1999/xlink" 
	 viewBox="0 0 512 512" xml:space="preserve">
<polygon style="fill:#95C11F;" points="231.987,47.877 210.27,102.086 231.987,111.914 256.339,104.18 "/>
<polygon style="fill:#6A86AC;" points="256.001,239.991 215.977,239.991 215.977,103.91 231.99,111.914 256.001,103.91 "/>
<polygon style="fill:#AACD4C;" points="167.949,143.934 167.949,119.919 191.963,71.89 215.977,111.914 215.977,143.934 "/>
<rect x="167.945" y="143.936" style="fill:#889EBD;" width="48.029" height="96.055"/>
<rect x="191.964" y="183.954" style="fill:#FFFFFF;" width="24.014" height="56.037"/>
<rect x="280.02" y="7.853" style="fill:#889EBD;" width="64.037" height="232.138"/>
<rect x="304.029" y="7.853" style="fill:#6A86AC;" width="40.028" height="232.138"/>
<rect x="151.936" y="456.12" style="fill:#889EBD;" width="208.119" height="48.029"/>
<rect x="256.001" y="456.12" style="fill:#6A86AC;" width="104.065" height="48.029"/>
<rect x="151.936" y="239.991" style="fill:#AACD4C;" width="208.119" height="216.129"/>
<rect x="256.001" y="239.991" style="fill:#95C11F;" width="104.065" height="216.129"/>
<g>
	<rect x="191.964" y="448.267" style="fill:#1D1D1B;" width="128.073" height="15.706"/>
	<path style="fill:#1D1D1B;" d="M351.906,232.138V0h-79.743v232.138h-8.309v-129.84l-31.868-74.357l-24.562,57.313l-15.462-30.923
		l-31.867,63.734v114.073h-16.01V512h223.829V232.138H351.906z M287.869,207.82h16.162v-15.706h-16.162V175.8h32.171v-15.706
		h-32.171v-16.314h16.162v-15.706h-16.162v-16.313h32.171V96.057h-32.171V79.743h16.162V64.038h-16.162V47.725h32.171V32.019
		h-32.171V15.706h48.332v216.433h-48.332V207.82z M223.83,232.138V118.066l-0.356-0.711l8.512,2.837l16.162-5.388v117.334H223.83z
		 M208.124,232.138h-8.309v-40.329h8.309V232.138z M245.422,99.158l-13.436,4.478l-13.434-4.478l13.434-31.348L245.422,99.158z
		 M191.963,89.45l16.162,32.323v14.308h-32.323v-14.308L191.963,89.45z M175.801,151.787h32.323v24.318H184.11v56.034H175.8v-80.353
		H175.801z M159.792,496.294v-32.323h16.162v-15.706h-16.162V247.844H352.21v200.422h-16.162v15.706h16.162v32.323H159.792z"/>
</g>
</svg>