<?xml version="1.0" encoding="iso-8859-1"?>
<!-- Uploaded to: SVG Repo, www.svgrepo.com, Generator: SVG Repo Mixer Tools -->
<svg version="1.1" id="Layer_1" xmlns="http://www.w3.org/2000/svg" xmlns:xlink="http://www.w3.org/1999/xlink" 
	 viewBox="0 0 512 512" xml:space="preserve">
<path style="fill:#FF8189;" d="M85.56,55.387l-5.51-21.525c-1.569-6.124,2.159-12.417,8.284-13.985L127.86,9.758
	c6.125-1.567,12.417,2.162,13.985,8.285l5.512,21.526L85.56,55.387z"/>
<rect x="87.871" y="47.068" transform="matrix(-0.9688 0.248 -0.248 -0.9688 250.7641 89.1769)" style="fill:#7D868C;" width="63.79" height="26.629"/>
<rect x="137.494" y="67.442" transform="matrix(-0.9688 0.248 -0.248 -0.9688 396.5332 458.5063)" style="fill:#F6C65B;" width="63.791" height="373.571"/>
<path style="fill:#F4DBB2;" d="M246.596,427.254l-12.12,63.182c-1.091,5.688-5.002,6.688-8.691,2.224L184.8,443.073L246.596,427.254
	z"/>
<path style="fill:#333E48;" d="M227.268,480.357c-3.147,0.806-6.143,1.901-8.98,3.232l7.5,9.072c3.688,4.464,7.6,3.464,8.691-2.224
	l2.218-11.56C233.567,479.072,230.415,479.551,227.268,480.357z"/>
<path style="fill:#FF8189;" d="M365.042,38.842l4.629-21.733c1.317-6.181,7.453-10.164,13.636-8.846l39.905,8.498
	c6.183,1.317,10.164,7.454,8.847,13.636l-4.629,21.732L365.042,38.842z"/>
<rect x="361.586" y="45.192" transform="matrix(-0.9781 -0.2083 0.2083 -0.9781 766.145 197.6873)" style="fill:#7D868C;" width="63.79" height="26.628"/>
<rect x="319.898" y="67.425" transform="matrix(-0.9781 -0.2083 0.2083 -0.9781 642.9221 576.121)" style="fill:#F6C65B;" width="63.791" height="373.57"/>
<path style="fill:#F4DBB2;" d="M344.066,443.536l-38.932,51.215c-3.505,4.611-7.453,3.77-8.774-1.869l-14.683-62.634
	L344.066,443.536z"/>
<path style="fill:#333E48;" d="M303.154,482.518c-3.178-0.678-6.348-1.026-9.48-1.096l2.686,11.46
	c1.321,5.638,5.269,6.479,8.774,1.869l7.123-9.371C309.369,484.167,306.331,483.194,303.154,482.518z"/>
<path style="fill:#FF8189;" d="M298.503,40.482l2.395-22.091c0.682-6.283,6.382-10.868,12.666-10.186l40.564,4.396
	c6.284,0.683,10.871,6.382,10.188,12.666l-2.395,22.09L298.503,40.482z"/>
<rect x="296.895" y="43.845" transform="matrix(-0.9942 -0.1078 0.1078 -0.9942 649.5031 149.4272)" style="fill:#7D868C;" width="63.791" height="26.628"/>
<rect x="275.321" y="69.31" transform="matrix(-0.9942 -0.1078 0.1078 -0.9942 585.0358 543.8118)" style="fill:#FFA400;" width="63.791" height="373.567"/>
<path style="fill:#F4DBB2;" d="M318.782,445.214l-33.523,54.908c-3.018,4.943-7.03,4.509-8.919-0.966l-20.975-60.817
	L318.782,445.214z"/>
<path style="fill:#333E48;" d="M282.044,488.153c-3.229-0.35-6.419-0.376-9.542-0.126l3.837,11.129
	c1.89,5.475,5.902,5.909,8.919,0.966l6.133-10.046C288.396,489.162,285.275,488.503,282.044,488.153z"/>
<path style="fill:#009BDE;" d="M413.509,182.125v284.27c0,20.681-16.92,37.601-37.601,37.601H137.291
	c-20.68,0-37.601-16.92-37.601-37.601v-284.27H413.509z"/>
<path style="fill:#333E48;" d="M413.509,182.125H99.69c-10.383,0-18.801-8.417-18.801-18.8c0-10.383,8.418-18.802,18.801-18.802
	h313.819c10.384,0,18.801,8.418,18.801,18.802C432.311,173.708,423.893,182.125,413.509,182.125z"/>
<path d="M301.779,471.199c4.28,0,7.749-3.469,7.749-7.748s-3.47-7.749-7.749-7.749s-7.748,3.47-7.748,7.749
	C294.032,467.73,297.501,471.199,301.779,471.199z M346.96,471.199c4.28,0,7.749-3.469,7.749-7.748s-3.47-7.749-7.749-7.749
	c-4.28,0-7.748,3.47-7.748,7.749C339.212,467.73,342.68,471.199,346.96,471.199z M346.96,324.986c4.28,0,7.749-3.469,7.749-7.748
	s-3.47-7.749-7.749-7.749c-4.28,0-7.748,3.47-7.748,7.749C339.212,321.518,342.68,324.986,346.96,324.986z M346.96,398.093
	c4.28,0,7.749-3.469,7.749-7.748s-3.47-7.749-7.749-7.749c-4.28,0-7.748,3.47-7.748,7.749
	C339.212,394.624,342.68,398.093,346.96,398.093z M301.779,215.327c4.28,0,7.749-3.469,7.749-7.748s-3.47-7.749-7.749-7.749
	s-7.748,3.47-7.748,7.749C294.032,211.858,297.501,215.327,301.779,215.327z M346.96,361.539c4.28,0,7.749-3.469,7.749-7.748
	s-3.47-7.749-7.749-7.749c-4.28,0-7.748,3.47-7.748,7.749C339.212,358.071,342.68,361.539,346.96,361.539z M301.779,361.539
	c4.28,0,7.749-3.469,7.749-7.748s-3.47-7.749-7.749-7.749s-7.748,3.47-7.748,7.749C294.032,358.071,297.501,361.539,301.779,361.539
	z M301.779,251.88c4.28,0,7.749-3.469,7.749-7.748c0-4.28-3.47-7.749-7.749-7.749s-7.748,3.47-7.748,7.749
	C294.032,248.411,297.501,251.88,301.779,251.88z M301.779,434.646c4.28,0,7.749-3.469,7.749-7.748s-3.47-7.749-7.749-7.749
	s-7.748,3.47-7.748,7.749C294.032,431.177,297.501,434.646,301.779,434.646z M301.779,398.093c4.28,0,7.749-3.469,7.749-7.748
	s-3.47-7.749-7.749-7.749s-7.748,3.47-7.748,7.749C294.032,394.624,297.501,398.093,301.779,398.093z M301.779,288.433
	c4.28,0,7.749-3.469,7.749-7.748s-3.47-7.749-7.749-7.749s-7.748,3.47-7.748,7.749C294.032,284.965,297.501,288.433,301.779,288.433
	z M301.779,324.986c4.28,0,7.749-3.469,7.749-7.748s-3.47-7.749-7.749-7.749s-7.748,3.47-7.748,7.749
	C294.032,321.518,297.501,324.986,301.779,324.986z M346.96,434.646c4.28,0,7.749-3.469,7.749-7.748s-3.47-7.749-7.749-7.749
	c-4.28,0-7.748,3.47-7.748,7.749C339.212,431.177,342.68,434.646,346.96,434.646z M392.14,324.986c4.28,0,7.749-3.469,7.749-7.748
	s-3.47-7.749-7.749-7.749c-4.28,0-7.748,3.47-7.748,7.749C384.393,321.518,387.861,324.986,392.14,324.986z M392.14,288.433
	c4.28,0,7.749-3.469,7.749-7.748s-3.47-7.749-7.749-7.749c-4.28,0-7.748,3.47-7.748,7.749
	C384.393,284.965,387.861,288.433,392.14,288.433z M392.14,251.88c4.28,0,7.749-3.469,7.749-7.748c0-4.28-3.47-7.749-7.749-7.749
	c-4.28,0-7.748,3.47-7.748,7.749C384.393,248.411,387.861,251.88,392.14,251.88z M392.14,215.327c4.28,0,7.749-3.469,7.749-7.748
	s-3.47-7.749-7.749-7.749c-4.28,0-7.748,3.47-7.748,7.749C384.393,211.858,387.861,215.327,392.14,215.327z M346.96,288.433
	c4.28,0,7.749-3.469,7.749-7.748s-3.47-7.749-7.749-7.749c-4.28,0-7.748,3.47-7.748,7.749S342.68,288.433,346.96,288.433z
	 M392.14,361.539c4.28,0,7.749-3.469,7.749-7.748s-3.47-7.749-7.749-7.749c-4.28,0-7.748,3.47-7.748,7.749
	C384.393,358.071,387.861,361.539,392.14,361.539z M346.96,215.327c4.28,0,7.749-3.469,7.749-7.748s-3.47-7.749-7.749-7.749
	c-4.28,0-7.748,3.47-7.748,7.749S342.68,215.327,346.96,215.327z M392.14,398.093c4.28,0,7.749-3.469,7.749-7.748
	s-3.47-7.749-7.749-7.749c-4.28,0-7.748,3.47-7.748,7.749C384.393,394.624,387.861,398.093,392.14,398.093z M346.96,251.88
	c4.28,0,7.749-3.469,7.749-7.748c0-4.28-3.47-7.749-7.749-7.749c-4.28,0-7.748,3.47-7.748,7.749
	C339.212,248.411,342.68,251.88,346.96,251.88z M392.14,471.199c4.28,0,7.749-3.469,7.749-7.748s-3.47-7.749-7.749-7.749
	c-4.28,0-7.748,3.47-7.748,7.749C384.393,467.73,387.861,471.199,392.14,471.199z M392.14,434.646c4.28,0,7.749-3.469,7.749-7.748
	s-3.47-7.749-7.749-7.749c-4.28,0-7.748,3.47-7.748,7.749C384.393,431.177,387.861,434.646,392.14,434.646z M211.419,471.199
	c4.28,0,7.749-3.469,7.749-7.748s-3.47-7.749-7.749-7.749c-4.28,0-7.748,3.47-7.748,7.749
	C203.672,467.73,207.14,471.199,211.419,471.199z M166.239,471.199c4.28,0,7.749-3.469,7.749-7.748s-3.47-7.749-7.749-7.749
	s-7.748,3.47-7.748,7.749C158.491,467.73,161.96,471.199,166.239,471.199z M166.239,434.646c4.28,0,7.749-3.469,7.749-7.748
	s-3.47-7.749-7.749-7.749s-7.748,3.47-7.748,7.749C158.491,431.177,161.96,434.646,166.239,434.646z M166.239,398.093
	c4.28,0,7.749-3.469,7.749-7.748s-3.47-7.749-7.749-7.749s-7.748,3.47-7.748,7.749C158.491,394.624,161.96,398.093,166.239,398.093z
	 M121.059,251.88c4.28,0,7.749-3.469,7.749-7.748c0-4.28-3.47-7.749-7.749-7.749s-7.748,3.47-7.748,7.749
	C113.311,248.411,116.78,251.88,121.059,251.88z M166.239,251.88c4.28,0,7.749-3.469,7.749-7.748c0-4.28-3.47-7.749-7.749-7.749
	s-7.748,3.47-7.748,7.749C158.491,248.411,161.96,251.88,166.239,251.88z M166.239,288.433c4.28,0,7.749-3.469,7.749-7.748
	s-3.47-7.749-7.749-7.749s-7.748,3.47-7.748,7.749S161.96,288.433,166.239,288.433z M166.239,361.539
	c4.28,0,7.749-3.469,7.749-7.748s-3.47-7.749-7.749-7.749s-7.748,3.47-7.748,7.749C158.491,358.071,161.96,361.539,166.239,361.539z
	 M166.239,324.986c4.28,0,7.749-3.469,7.749-7.748s-3.47-7.749-7.749-7.749s-7.748,3.47-7.748,7.749
	C158.491,321.518,161.96,324.986,166.239,324.986z M121.059,215.327c4.28,0,7.749-3.469,7.749-7.748s-3.47-7.749-7.749-7.749
	s-7.748,3.47-7.748,7.749C113.311,211.858,116.78,215.327,121.059,215.327z M121.059,288.433c4.28,0,7.749-3.469,7.749-7.748
	s-3.47-7.749-7.749-7.749s-7.748,3.47-7.748,7.749C113.311,284.965,116.78,288.433,121.059,288.433z M121.059,434.646
	c4.28,0,7.749-3.469,7.749-7.748s-3.47-7.749-7.749-7.749s-7.748,3.47-7.748,7.749C113.311,431.177,116.78,434.646,121.059,434.646z
	 M417.575,136.827l22.314-104.763c2.239-10.514-4.494-20.891-15.01-23.133l-39.903-8.498c-5.079-1.084-10.29-0.115-14.669,2.725
	c-2.234,1.449-4.105,3.299-5.551,5.434c-2.811-2.174-6.156-3.556-9.767-3.949l-40.563-4.396
	c-10.681-1.163-20.327,6.592-21.486,17.28l-12.901,118.99h-99.604L149.599,16.056C146.933,5.643,136.29-0.663,125.874,2.003
	L86.346,12.121c-5.033,1.289-9.269,4.471-11.928,8.96c-2.66,4.489-3.413,9.733-2.124,14.765l25.784,100.724
	c-14.032,0.837-25.193,12.513-25.193,26.753c0,11.993,7.918,22.17,18.801,25.583v277.488c0,25.147,20.458,45.605,45.606,45.605
	h238.617c25.147,0,45.605-20.458,45.605-45.605V188.907c10.883-3.412,18.801-13.589,18.801-25.583
	C440.315,149.926,430.434,138.792,417.575,136.827z M377.5,18.776c0.258-1.213,1.064-1.891,1.522-2.189
	c0.457-0.297,1.401-0.756,2.619-0.496l39.904,8.498c1.851,0.394,3.081,2.29,2.687,4.14l-2.962,13.904l-46.733-9.953L377.5,18.776z
	 M371.203,48.337l46.733,9.953l-2.211,10.385l-46.733-9.954L371.203,48.337z M367.009,74.668l45.379,9.666l-11.115,52.185h-40.972
	L367.009,74.668z M308.855,19.255c0.204-1.88,1.963-3.298,3.846-3.091l40.562,4.396c1.234,0.133,1.993,0.868,2.334,1.292
	c0.342,0.425,0.894,1.32,0.761,2.553l-1.533,14.132l-47.502-5.151L308.855,19.255z M305.597,49.302l47.502,5.151l-1.145,10.558
	l-47.502-5.151L305.597,49.302z M302.727,75.775l47.502,5.151l-6.028,55.593h-48.06L302.727,75.775z M148.189,75.104l15.721,61.415
	h-49.32l-12.688-49.566L148.189,75.104z M87.803,31.875c-0.307-1.201,0.112-2.167,0.39-2.635c0.277-0.47,0.923-1.302,2.125-1.609
	l39.524-10.119c1.83-0.467,3.779,0.683,4.248,2.515l3.525,13.773L91.328,45.648L87.803,31.875z M97.932,71.444l-2.634-10.288
	l46.287-11.849l2.634,10.287L97.932,71.444z M405.505,466.395c0,16.32-13.278,29.597-29.597,29.597H137.291
	c-16.32,0-29.597-13.278-29.597-29.597V190.129h297.81V466.395z M413.509,174.121H99.69c-5.953,0-10.796-4.843-10.796-10.795
	c0-5.954,4.843-10.797,10.796-10.797h313.819c5.953,0,10.796,4.844,10.796,10.797C424.307,169.277,419.462,174.121,413.509,174.121z
	 M121.059,471.199c4.28,0,7.749-3.469,7.749-7.748s-3.47-7.749-7.749-7.749s-7.748,3.47-7.748,7.749
	C113.311,467.73,116.78,471.199,121.059,471.199z M121.059,324.986c4.28,0,7.749-3.469,7.749-7.748s-3.47-7.749-7.749-7.749
	s-7.748,3.47-7.748,7.749C113.311,321.518,116.78,324.986,121.059,324.986z M121.059,361.539c4.28,0,7.749-3.469,7.749-7.748
	s-3.47-7.749-7.749-7.749s-7.748,3.47-7.748,7.749C113.311,358.071,116.78,361.539,121.059,361.539z M121.059,398.093
	c4.28,0,7.749-3.469,7.749-7.748s-3.47-7.749-7.749-7.749s-7.748,3.47-7.748,7.749C113.311,394.624,116.78,398.093,121.059,398.093z
	 M211.419,288.433c4.28,0,7.749-3.469,7.749-7.748s-3.47-7.749-7.749-7.749c-4.28,0-7.748,3.47-7.748,7.749
	C203.672,284.965,207.14,288.433,211.419,288.433z M256.6,471.199c4.28,0,7.749-3.469,7.749-7.748s-3.47-7.749-7.749-7.749
	c-4.28,0-7.748,3.47-7.748,7.749C248.851,467.73,252.32,471.199,256.6,471.199z M256.6,434.646c4.28,0,7.749-3.469,7.749-7.748
	s-3.47-7.749-7.749-7.749c-4.28,0-7.748,3.47-7.748,7.749C248.851,431.177,252.32,434.646,256.6,434.646z M256.6,361.539
	c4.28,0,7.749-3.469,7.749-7.748s-3.47-7.749-7.749-7.749c-4.28,0-7.748,3.47-7.748,7.749
	C248.851,358.071,252.32,361.539,256.6,361.539z M166.239,215.327c4.28,0,7.749-3.469,7.749-7.748s-3.47-7.749-7.749-7.749
	s-7.748,3.47-7.748,7.749S161.96,215.327,166.239,215.327z M256.6,251.88c4.28,0,7.749-3.469,7.749-7.748
	c0-4.28-3.47-7.749-7.749-7.749c-4.28,0-7.748,3.47-7.748,7.749C248.851,248.411,252.32,251.88,256.6,251.88z M256.6,324.986
	c4.28,0,7.749-3.469,7.749-7.748s-3.47-7.749-7.749-7.749c-4.28,0-7.748,3.47-7.748,7.749
	C248.851,321.518,252.32,324.986,256.6,324.986z M256.6,288.433c4.28,0,7.749-3.469,7.749-7.748s-3.47-7.749-7.749-7.749
	c-4.28,0-7.748,3.47-7.748,7.749C248.851,284.965,252.32,288.433,256.6,288.433z M256.6,398.093c4.28,0,7.749-3.469,7.749-7.748
	s-3.47-7.749-7.749-7.749c-4.28,0-7.748,3.47-7.748,7.749C248.851,394.624,252.32,398.093,256.6,398.093z M211.419,361.539
	c4.28,0,7.749-3.469,7.749-7.748s-3.47-7.749-7.749-7.749c-4.28,0-7.748,3.47-7.748,7.749
	C203.672,358.071,207.14,361.539,211.419,361.539z M211.419,398.093c4.28,0,7.749-3.469,7.749-7.748s-3.47-7.749-7.749-7.749
	c-4.28,0-7.748,3.47-7.748,7.749C203.672,394.624,207.14,398.093,211.419,398.093z M211.419,434.646c4.28,0,7.749-3.469,7.749-7.748
	s-3.47-7.749-7.749-7.749c-4.28,0-7.748,3.47-7.748,7.749C203.672,431.177,207.14,434.646,211.419,434.646z M256.6,215.327
	c4.28,0,7.749-3.469,7.749-7.748s-3.47-7.749-7.749-7.749c-4.28,0-7.748,3.47-7.748,7.749
	C248.851,211.858,252.32,215.327,256.6,215.327z M211.419,324.986c4.28,0,7.749-3.469,7.749-7.748s-3.47-7.749-7.749-7.749
	c-4.28,0-7.748,3.47-7.748,7.749C203.672,321.518,207.14,324.986,211.419,324.986z M211.419,251.88c4.28,0,7.749-3.469,7.749-7.748
	c0-4.28-3.47-7.749-7.749-7.749c-4.28,0-7.748,3.47-7.748,7.749C203.672,248.411,207.14,251.88,211.419,251.88z M211.419,215.327
	c4.28,0,7.749-3.469,7.749-7.748s-3.47-7.749-7.749-7.749c-4.28,0-7.748,3.47-7.748,7.749
	C203.672,211.858,207.14,215.327,211.419,215.327z"/>
</svg>